<svg width="416" height="431" viewBox="0 0 416 431" fill="none" xmlns="http://www.w3.org/2000/svg"><path d="M155.771 430.05.611 340.47a.709.709 0 0 1 0-1.35l238.27-137.56a2.576 2.576 0 0 1 2.33 0l155.16 89.58a.712.712 0 0 1 0 1.34l-238.27 137.57a2.576 2.576 0 0 1-2.33 0ZM391.821 360.56c5.4 11.63-6.56 23.59-26.71 26.71-20.15 3.12-40.86-3.79-46.26-15.42-5.4-11.63 6.56-23.6 26.71-26.72 20.15-3.12 40.86 3.79 46.26 15.43Z" fill="#E0E0E0"/><path d="m377 281.28-11.25-5.95s-.86-17.2.48-30.83c1.88-19.15 16.12-41.39 30.88-36 14.76 5.39-6.76 24.92-11.56 41.16-4.8 16.24-8.55 31.62-8.55 31.62Z" fill="#31B34E"/><path opacity=".1" d="m377 281.28-11.25-5.95s-.86-17.2.48-30.83c1.88-19.15 16.12-41.39 30.88-36 14.76 5.39-6.76 24.92-11.56 41.16-4.8 16.24-8.55 31.62-8.55 31.62Z" fill="#000"/><path d="M371.541 279.29a.495.495 0 0 0 .48-.52c-1.44-42.56 19.75-64 20-64.18a.495.495 0 1 0-.7-.7c-.22.21-21.71 21.93-20.25 64.92a.503.503 0 0 0 .47.48Z" fill="#E0E0E0"/><path d="M382.81 284.68 377 281.3a65.406 65.406 0 0 1 3.63-28.39c5.37-14.71 19.37-22.73 25.83-20.53 7.87 2.67 7.92 10.2 5.05 15.16-3.37 5.83-24.45 20.6-28.7 37.14Z" fill="#31B34E"/><path d="M379.721 283.401a.509.509 0 0 0 .49-.5c-.11-26.91 25.15-45.1 25.41-45.28a.518.518 0 0 0 .152-.139.506.506 0 0 0 0-.583.497.497 0 0 0-.732-.088c-.26.18-25.94 18.67-25.82 46.09a.5.5 0 0 0 .5.5Z" fill="#E0E0E0"/><path d="M23.44 335.16c0 3.37 2.52 7.56 5.64 9.36l122.739 70.88a12.463 12.463 0 0 0 11.28 0l216.14-124.79c3.12-1.8 5.64-6 5.64-9.36 0-3.36-2.52-7.57-5.64-9.36L256.499 201a12.46 12.46 0 0 0-11.28 0L29.079 325.8c-3.08 1.79-5.64 5.98-5.64 9.36Z" fill="#31B34E"/><path opacity=".5" d="M384.881 281.249c0 3.38-2.52 7.56-5.63 9.36l-216.15 124.8a11.63 11.63 0 0 1-5.63 1.34v-12.21a11.514 11.514 0 0 0 5.63-1.35l216.15-124.79c2.72-1.57 3.06-4 1-5.79 2.64 2.03 4.63 5.65 4.63 8.64Z" fill="#000"/><path opacity=".3" d="m29.08 332.31 122.74 70.88a12.46 12.46 0 0 0 11.28 0L379.24 278.4c3.12-1.8 3.12-4.72 0-6.51L256.5 201a12.467 12.467 0 0 0-11.28 0L29.08 325.8c-3.08 1.79-3.08 4.71 0 6.51Z" fill="#000"/><path opacity=".6" d="M157.459 404.55v12.2a11.56 11.56 0 0 1-5.63-1.34l-122.76-70.89c-3.11-1.8-5.63-6-5.63-9.36 0-3.17 2.22-7.05 5.06-9-2.52 1.81-2.33 4.47.57 6.15l122.76 70.88a11.464 11.464 0 0 0 5.63 1.36Z" fill="#000"/><path d="M18.15 326c-2.92-1.69-2.76-4.54-2.76-8.13V148.32a12.467 12.467 0 0 1 5.61-9.76L237.17 13.77c3.11-1.8 6-.5 8.9 1.19 2.9 1.69 4.79 3.14 4.79 6.74v169.54a12.475 12.475 0 0 1-5.64 9.77L29.08 325.8c-3.08 1.79-8.01 1.88-10.93.2Z" fill="#31B34E"/><path opacity=".3" d="M250.86 21.69c0-3.59-2.53-5-5.64-3.25L29.07 143.23a11.508 11.508 0 0 0-4 4.22L17 142.77a11.625 11.625 0 0 1 4-4.22L237.16 13.77c3.12-1.8 6-.5 8.91 1.19s4.79 3.14 4.79 6.73Z" fill="#000"/><path opacity=".5" d="M23.44 153v169.54c0 3.6 2.52 5 5.64 3.26L245.219 201a12.458 12.458 0 0 0 3.987-4.212 12.462 12.462 0 0 0 1.653-5.558V21.7c0-3.6-2.53-5.06-5.64-3.26L29.079 143.23a12.45 12.45 0 0 0-5.64 9.77Z" fill="#000"/><path opacity=".6" d="M28.41 326.14c-3.11 1.45-7.54 1.43-10.26-.15-2.92-1.68-2.76-4.53-2.76-8.12V148.32a11.467 11.467 0 0 1 1.61-5.55l8.05 4.66a11.497 11.497 0 0 0-1.61 5.57v169.54c0 3.34 2.17 4.83 4.97 3.6Z" fill="#000"/><path d="M32.11 149.73 240.5 29.45c1.87-1.08 3.38-.2 3.38 1.95v148a7.476 7.476 0 0 1-3.38 5.86L32.11 305.55c-1.87 1.08-3.38.2-3.38-2v-148a7.473 7.473 0 0 1 3.38-5.82Z" fill="#FAFAFA"/><path d="M44.68 326.13 245.31 210.3a6.202 6.202 0 0 1 5.63 0l5.84 3.06c1.56.9 1.56 2.36 0 3.26L56.12 332.43a6.237 6.237 0 0 1-5.64 0l-5.8-3.05c-1.56-.9-1.56-2.38 0-3.25Z" fill="#31B34E"/><path opacity=".45" d="M44.68 326.13 245.31 210.3a6.202 6.202 0 0 1 5.63 0l5.84 3.06c1.56.9 1.56 2.36 0 3.26L56.12 332.43a6.237 6.237 0 0 1-5.64 0l-5.8-3.05c-1.56-.9-1.56-2.38 0-3.25Z" fill="#000"/><path opacity=".3" d="m60.411 335.49 200.59-115.84a5.748 5.748 0 0 1 5.15-.28l52.22 30.15c1.29.75 1.07 2.08-.49 3l-200.35 115.65a5.795 5.795 0 0 1-2.546.754 5.791 5.791 0 0 1-2.614-.464l-52.44-30c-1.29-.75-1.07-2.08.48-2.97Z" fill="#263238"/><path d="m232.6 267.83 6.28-3.63c.27-.15.31-.38.09-.5l-5.54-3.2a1.002 1.002 0 0 0-.88.05l-6.28 3.62c-.27.16-.31.38-.09.51l5.54 3.2c.141.06.293.086.446.077a.988.988 0 0 0 .434-.127Zm-8.76-12.31-6.28 3.62c-.27.16-.31.38-.09.51l5.54 3.2c.141.06.293.086.446.077a.988.988 0 0 0 .434-.127l6.28-3.63c.27-.15.31-.38.09-.51l-5.54-3.19a1.002 1.002 0 0 0-.88.05Zm-20.3 11.71-10.63 6.14c-.26.15-.3.38-.09.51l5.55 3.2c.141.06.293.086.446.077a.988.988 0 0 0 .434-.127l10.63-6.14c.26-.15.3-.38.08-.51l-5.54-3.2a1.002 1.002 0 0 0-.88.05Zm11.12-6.41-6.29 3.62c-.26.16-.3.38-.08.51l5.54 3.2a1.003 1.003 0 0 0 .88 0l6.28-3.63c.27-.15.31-.38.09-.5l-5.54-3.2a1 1 0 0 0-.88 0ZM190 275l-6.28 3.63c-.27.15-.3.38-.09.51l5.55 3.2a.995.995 0 0 0 .87-.05l6.29-3.63c.26-.15.3-.38.08-.51l-5.54-3.2a1.002 1.002 0 0 0-.88.05Zm-9.18 5.3-6.27 3.7c-.27.16-.31.38-.09.51l5.54 3.2a.992.992 0 0 0 .88-.05l6.29-3.63c.26-.15.3-.38.08-.51l-5.54-3.2a1.005 1.005 0 0 0-.88.02l-.01-.04Zm23.28 14 6.28-3.62c.27-.16.31-.39.09-.51l-5.54-3.2a1.002 1.002 0 0 0-.88.05l-6.28 3.63c-.27.15-.31.38-.09.5l5.54 3.2a1.005 1.005 0 0 0 .89-.01l-.01-.04Zm-9.18 5.3 6.28-3.62c.27-.16.31-.38.09-.51l-5.54-3.2a1.002 1.002 0 0 0-.88.05L188.6 296c-.27.15-.31.38-.09.5l5.54 3.2a.993.993 0 0 0 .88-.06l-.01-.04Zm-9.18 5.3 6.28-3.62c.27-.16.31-.38.09-.51l-5.54-3.2a1.002 1.002 0 0 0-.88.05l-6.28 3.63c-.27.15-.31.38-.09.5l5.54 3.2a1.005 1.005 0 0 0 .89-.01l-.01-.04Zm-9.18 5.3 6.28-3.62c.27-.16.31-.38.09-.51l-5.54-3.2a1 1 0 0 0-.88 0l-6.28 3.63c-.27.15-.31.38-.09.51l5.54 3.19a1.001 1.001 0 0 0 .89.04l-.01-.04Zm46.85-37.11 6.28-3.63c.27-.15.31-.38.09-.5l-5.54-3.2a1.002 1.002 0 0 0-.88.05l-6.28 3.62c-.27.16-.31.39-.09.51l5.54 3.2a1.005 1.005 0 0 0 .89-.01l-.01-.04ZM213.29 289l14-8.09c.27-.15.31-.38.09-.51l-14.25-8.23a1.002 1.002 0 0 0-.88.05l-7.25 4.23c-.27.15-.31.38-.09.51l7.92 4.57c.22.13.18.35-.08.51l-5.8 3.35c-.27.15-.31.38-.09.5l5.54 3.2a.997.997 0 0 0 .89-.09Zm-41.64-3.39-6.28 3.62c-.27.16-.31.38-.09.51l5.54 3.2c.141.06.293.086.446.077a.988.988 0 0 0 .434-.127l6.3-3.59c.27-.15.31-.38.09-.51l-5.54-3.2a.995.995 0 0 0-.9.06v-.04Zm-9.18 5.3-6.28 3.62c-.27.16-.31.38-.09.51l5.54 3.2a1.003 1.003 0 0 0 .88 0l6.28-3.63c.27-.15.31-.38.09-.51l-5.54-3.19a1 1 0 0 0-.88.09v-.09Zm-51.05 56.49a1.003 1.003 0 0 0 .88 0l6.28-3.63c.27-.15.31-.38.09-.51l-5.54-3.2a1.003 1.003 0 0 0-.88.06l-6.25 3.57c-.27.16-.31.38-.09.51l5.51 3.2Zm-22.4-14-6.28 3.6c-.26.15-.3.38-.09.5l5.55 3.2a.931.931 0 0 0 .87-.05l6.29-3.62c.26-.16.3-.38.08-.51l-5.54-3.2a.999.999 0 0 0-.9.03l.02.05Zm11.27 10.41c.141.06.293.086.446.077a.988.988 0 0 0 .434-.127l6.28-3.62c.27-.16.31-.39.09-.51l-5.54-3.2a1.002 1.002 0 0 0-.88.05l-6.28 3.63c-.27.15-.31.38-.09.5l5.54 3.2Zm25.56 5.83 6.28-3.63c.27-.15.31-.38.09-.5l-5.54-3.2a1.002 1.002 0 0 0-.88.05l-6.28 3.62c-.27.16-.31.38-.09.51l5.54 3.2a1.007 1.007 0 0 0 .88-.1v.05Zm-10.06 5.35c.141.06.293.086.446.077a.988.988 0 0 0 .434-.127l6.28-3.63c.27-.15.3-.38.09-.5l-5.55-3.2a.929.929 0 0 0-.87.05l-6.29 3.62c-.26.16-.3.39-.08.51l5.54 3.2ZM98.2 328.05l-6.28 3.63c-.26.15-.3.38-.08.5l5.54 3.2a.991.991 0 0 0 .88-.05l6.28-3.62c.26-.16.3-.38.08-.51l-5.54-3.2a1.002 1.002 0 0 0-.88.05Zm45.91-26.5-6.28 3.62c-.27.16-.31.39-.09.51l5.54 3.2a.992.992 0 0 0 .88-.05l6.28-3.63c.27-.15.31-.38.09-.5l-5.53-3.2a1.01 1.01 0 0 0-.451-.08 1.016 1.016 0 0 0-.439.13Zm-36.72 21.2-6.29 3.63c-.26.15-.3.38-.08.5l5.54 3.2c.141.06.293.086.446.077a.988.988 0 0 0 .434-.127l6.28-3.62c.27-.16.3-.39.09-.51l-5.55-3.2a1.007 1.007 0 0 0-.87.05Zm45.9-26.5-6.29 3.62c-.27.16-.31.38-.09.51l5.54 3.2c.141.06.293.086.446.077a.988.988 0 0 0 .434-.127l6.28-3.63c.27-.15.31-.38.09-.5l-5.54-3.2a1.007 1.007 0 0 0-.87.05Zm-18.36 10.6-6.28 3.62c-.27.16-.31.39-.09.51l5.54 3.2a.992.992 0 0 0 .88-.05l6.28-3.63c.27-.15.31-.38.09-.5l-5.54-3.2a1.002 1.002 0 0 0-.88.05Zm-9.18 5.3-6.28 3.63c-.27.15-.31.38-.09.5l5.54 3.2a.992.992 0 0 0 .88-.05l6.28-3.63c.27-.15.31-.38.09-.5l-5.54-3.2a1.002 1.002 0 0 0-.88.05Zm-9.18 5.3-6.29 3.63c-.26.15-.3.38-.08.5l5.54 3.2a1.003 1.003 0 0 0 .88 0l6.28-3.63c.27-.15.3-.38.09-.5l-5.54-3.2a1 1 0 0 0-.88 0Zm41.64 3.4 6.28-3.63c.26-.16.3-.38.09-.51l-5.55-3.2a1.002 1.002 0 0 0-.88.05l-6.28 3.63c-.26.15-.3.38-.08.51l5.54 3.2a.992.992 0 0 0 .88-.05Zm85.92-77.05-6.28 3.63c-.27.15-.31.38-.09.5l5.54 3.2c.141.06.293.086.446.077a.988.988 0 0 0 .434-.127l6.28-3.63c.27-.15.31-.38.09-.5l-5.54-3.2a1.002 1.002 0 0 0-.88.05ZM233 250.22l-6.28 3.62c-.27.16-.31.38-.09.51l5.54 3.2c.141.06.293.086.446.077a.988.988 0 0 0 .434-.127l6.28-3.63c.27-.15.31-.38.09-.51l-5.54-3.2a1.003 1.003 0 0 0-.88.06Zm20.29-11.72-6.29 3.62c-.27.16-.3.39-.09.51l5.55 3.2a.931.931 0 0 0 .87-.05l6.29-3.63c.26-.15.3-.38.08-.5l-5.54-3.2a.989.989 0 0 0-.85.05h-.02Zm-51.15 46.91 6.28-3.63c.27-.16.31-.38.09-.51l-5.54-3.2a1.002 1.002 0 0 0-.88.05l-6.28 3.63c-.27.15-.31.38-.09.51l5.54 3.2a.994.994 0 0 0 .9-.05h-.02Zm61.21-52.26a1.002 1.002 0 0 0-.88.05l-6.28 3.62c-.26.16-.3.39-.08.51l5.54 3.2a.994.994 0 0 0 .87 0l6.29-3.63c.26-.15.3-.38.08-.5l-5.54-3.25Zm-96 82.39 6.28-3.62c.27-.16.3-.38.09-.51l-5.55-3.2a1.007 1.007 0 0 0-.87.05l-6.29 3.63c-.26.15-.3.38-.08.51l5.54 3.2a.992.992 0 0 0 .92-.06h-.04Zm112.58-65 6.29-3.62c.26-.16.3-.39.08-.51l-5.54-3.2a1.002 1.002 0 0 0-.88.05l-6.28 3.63c-.27.15-.31.38-.09.5l5.54 3.2a1 1 0 0 0 .95-.05h-.07Zm-17.89.27 6.28-3.62c.27-.16.31-.39.09-.51l-5.54-3.2a1 1 0 0 0-.88 0l-6.28 3.63c-.27.15-.31.38-.09.5l5.54 3.2a.995.995 0 0 0 .92 0h-.04Zm10-12.63a1.002 1.002 0 0 0-.88.05l-6.28 3.63c-.27.15-.31.38-.09.5l5.54 3.2c.141.06.293.086.446.077a.988.988 0 0 0 .434-.127l6.28-3.62c.27-.16.31-.39.09-.51l-5.54-3.2Zm1.93-1.12 14.26 8.23a.931.931 0 0 0 .87-.05l6.29-3.62c.26-.16.3-.39.08-.51l-14.25-8.23a1.002 1.002 0 0 0-.88.05l-6.28 3.62c-.22.16-.26.39-.06.51h-.03Zm-21.17 11.77-6.29 3.63c-.26.15-.3.38-.08.5l5.54 3.2c.141.06.293.086.446.077a.988.988 0 0 0 .434-.127l6.28-3.62c.27-.16.31-.39.09-.51l-5.54-3.2a.996.996 0 0 0-.83.05h-.05Zm-69.1 39.89-6.28 3.63c-.27.15-.31.38-.09.51l5.54 3.2c.141.06.293.086.446.077a.988.988 0 0 0 .434-.127l6.28-3.63c.27-.15.31-.38.09-.51l-5.54-3.2a.996.996 0 0 0-.83.05h-.05Zm86.16-32.83c.141.06.293.086.446.077a.988.988 0 0 0 .434-.127l6.28-3.62c.27-.16.31-.38.09-.51l-5.54-3.2a1.002 1.002 0 0 0-.88.05l-6.28 3.63c-.27.15-.31.38-.09.5l5.54 3.2Zm-77 27.53-6.28 3.63c-.27.15-.31.38-.09.51l5.54 3.2a.992.992 0 0 0 .88-.05l6.28-3.63c.27-.15.31-.38.09-.51l-5.54-3.2a1.006 1.006 0 0 0-.81.05h-.07ZM120.6 342.1c.141.06.293.086.446.077a.988.988 0 0 0 .434-.127l6.28-3.63c.27-.15.31-.38.09-.51l-5.54-3.2a1.002 1.002 0 0 0-.88.05l-6.28 3.63c-.27.16-.31.38-.09.51l5.54 3.2Zm-10.3-11-6.3 3.66c-.27.15-.31.38-.09.5l5.54 3.2a1.003 1.003 0 0 0 .88 0l6.28-3.63c.27-.15.31-.38.09-.5l-5.54-3.2a.998.998 0 0 0-.86 0v-.03Zm20.36 5.62 6.28-3.63c.27-.15.31-.38.09-.51l-5.54-3.2a1 1 0 0 0-.88 0l-6.28 3.63c-.27.15-.31.38-.09.51l5.54 3.2a.996.996 0 0 0 .88.03v-.03Zm9.18-5.3 6.29-3.63c.26-.15.3-.38.08-.51l-5.54-3.2a1.002 1.002 0 0 0-.88.05l-6.28 3.63c-.27.15-.3.38-.09.51l5.55 3.2a1 1 0 0 0 .87-.02v-.03Zm9.19-5.3 6.28-3.63c.26-.16.3-.38.08-.51l-5.54-3.2a1.002 1.002 0 0 0-.88.05l-6.28 3.63c-.26.15-.3.38-.08.51l5.54 3.2a1 1 0 0 0 .85-.02l.03-.03Zm-29.55-.32-6.28 3.62c-.27.16-.31.39-.09.51l5.54 3.2c.141.06.293.086.446.077a.988.988 0 0 0 .434-.127l6.28-3.63c.27-.15.31-.38.09-.5l-5.54-3.2a.997.997 0 0 0-.88.08v-.03Zm9.18-5.3-6.28 3.62c-.27.16-.3.38-.09.51l5.55 3.2a.995.995 0 0 0 .87-.05l6.29-3.63c.26-.15.3-.38.08-.5l-5.54-3.2a.997.997 0 0 0-.88.08v-.03Zm36.73-21.2-6.29 3.7c-.26.16-.3.38-.08.51l5.54 3.2c.141.06.293.086.446.077a.988.988 0 0 0 .434-.127l6.28-3.63c.27-.15.3-.38.09-.51l-5.54-3.2a1.003 1.003 0 0 0-.88.01v-.03Zm-9.18 5.3-6.29 3.62c-.26.16-.3.38-.08.51l5.54 3.2a1.003 1.003 0 0 0 .88 0l6.28-3.63c.27-.15.3-.38.09-.51l-5.55-3.2a1.002 1.002 0 0 0-.87.04v-.03Zm18.36-10.6-6.28 3.63c-.27.16-.31.38-.09.51l5.54 3.2a.992.992 0 0 0 .88-.05l6.28-3.63c.27-.15.31-.38.09-.51l-5.54-3.2a1.002 1.002 0 0 0-.88.05Zm-36.73 21.21-6.28 3.62c-.26.16-.3.38-.09.51l5.55 3.2a.992.992 0 0 0 .88-.05l6.28-3.63c.26-.15.3-.38.08-.5l-5.54-3.2a1.006 1.006 0 0 0-.88.07v-.02Zm9.18-5.3-6.28 3.62c-.26.16-.3.38-.08.51l5.54 3.2c.141.06.293.086.446.077a.988.988 0 0 0 .434-.127l6.28-3.63c.26-.15.3-.38.08-.51l-5.54-3.19a.997.997 0 0 0-.9.07l.02-.02Zm-12 34.36 6.28-3.63c.27-.15.31-.38.09-.51l-5.53-3.13a1.002 1.002 0 0 0-.88.05l-6.28 3.62c-.27.16-.31.38-.09.51l5.54 3.2a1.005 1.005 0 0 0 .85-.09l.02-.02Zm-48.77-2.49-5.54-3.2a1.001 1.001 0 0 0-.88 0l-6.28 3.63c-.27.15-.3.38-.09.51L79 346a.99.99 0 0 0 .88-.05l6.29-3.62c.27-.18.31-.4.09-.53l-.01-.02Zm12.1 3.08-5.54-3.2a1.001 1.001 0 0 0-.88.05l-9.66 5.58c-.27.15-.31.38-.09.51l5.54 3.2a1.002 1.002 0 0 0 .88 0l9.66-5.58c.28-.19.32-.42.1-.54l-.01-.02Zm-20.26-9.46-5.54-3.2a.93.93 0 0 0-.87 0L64 336.73c-.26.16-.3.38-.08.51l5.54 3.2a.99.99 0 0 0 .88-.05l7.73-4.47c.21-.15.25-.38.03-.5l-.01-.02ZM84 332a.99.99 0 0 0 .88-.05l6.28-3.62c.27-.16.31-.38.09-.51l-5.54-3.2a1.001 1.001 0 0 0-.88.05l-6.28 3.63c-.27.15-.31.38-.09.5L84 332Zm25.46 16.52-5.46-3.2a1.002 1.002 0 0 0-.88.05l-12.08 7c-.27.15-.31.38-.09.51l5.54 3.2a.991.991 0 0 0 .88-.05l12.08-7c.22-.16.26-.39.04-.52l-.03.01Zm4.37 7.55-5.55-3.2a.929.929 0 0 0-.87.05l-7.74 4.46c-.26.16-.3.38-.08.51l5.54 3.2a.996.996 0 0 0 .87-.09l7.73-4.47c.27-.12.34-.35.13-.47l-.03.01Zm38.43-63.48c.141.06.293.086.446.077a.988.988 0 0 0 .434-.127l6.28-3.62c.27-.16.31-.38.09-.51L154 285.2a1.002 1.002 0 0 0-.88.05l-6.28 3.63c-.27.15-.31.38-.09.5l5.51 3.21ZM133.9 303.2a.993.993 0 0 0 .88-.06l6.28-3.62c.27-.16.31-.38.09-.51l-5.54-3.2a1.002 1.002 0 0 0-.88.05l-6.28 3.63c-.27.15-.31.38-.09.51l5.54 3.2Zm-40.72 23.5a.99.99 0 0 0 .88-.05l6.28-3.62c.27-.16.31-.38.09-.51l-5.54-3.2a1.001 1.001 0 0 0-.88.05L87.76 323c-.27.15-.31.38-.09.5l5.51 3.2Zm49.9-28.81a.992.992 0 0 0 .88-.05l6.28-3.62c.27-.16.31-.38.09-.51l-5.54-3.2a1.002 1.002 0 0 0-.88.05l-6.28 3.63c-.27.15-.31.38-.09.51l5.54 3.19Zm-18.36 10.61a.993.993 0 0 0 .88-.06l6.28-3.62c.27-.16.31-.38.09-.51l-5.54-3.2a1 1 0 0 0-.88 0l-6.28 3.63c-.27.15-.31.38-.09.51l5.54 3.25ZM119 356.77a1.002 1.002 0 0 0-.88.05l-9.66 5.58c-.27.16-.31.38-.09.51l5.54 3.2c.141.06.293.086.446.077a.988.988 0 0 0 .434-.127l9.67-5.58c.26-.15.3-.38.08-.51l-5.54-3.2Zm-7.38-40.68a.93.93 0 0 0 .87 0l6.29-3.62c.26-.16.3-.39.08-.51l-5.54-3.2a1.002 1.002 0 0 0-.88.05l-6.28 3.63c-.27.15-.3.38-.09.5l5.55 3.15Zm-9.19 5.3c.141.06.293.086.446.077a.988.988 0 0 0 .434-.127l6.28-3.62c.27-.16.31-.39.09-.51L104.1 314a1.002 1.002 0 0 0-.88.05l-6.28 3.63c-.27.15-.31.38-.09.5l5.58 3.21Zm186.66-62.82a1.002 1.002 0 0 0-.88.05l-15.46 8.93c-.27.15-.31.38-.09.51l5.54 3.2c.141.06.293.086.446.077a.988.988 0 0 0 .434-.127l15.46-8.93c.27-.16.31-.38.09-.51l-5.54-3.2Zm-20.3 11.72a1.004 1.004 0 0 0-.87 0l-6.33 3.71c-.26.15-.3.38-.08.5l5.54 3.2c.141.06.293.086.446.077a.988.988 0 0 0 .434-.127l6.28-3.62c.27-.16.3-.39.09-.51l-5.51-3.23ZM144.21 339l6.28-3.63c.27-.15.31-.38.09-.51l-5.54-3.2a1.003 1.003 0 0 0-.88.06l-6.28 3.62c-.27.16-.31.38-.09.51l5.54 3.2a.992.992 0 0 0 .88-.05Zm106.18-58.1a1.002 1.002 0 0 0-.88.05l-6.28 3.63c-.26.15-.3.38-.09.51l5.55 3.19a.93.93 0 0 0 .87 0l6.29-3.62c.26-.16.3-.38.08-.51l-5.54-3.25Zm47.84-27.62a1.002 1.002 0 0 0-.88.05l-6.28 3.67c-.27.15-.31.38-.09.51l5.54 3.2c.141.06.293.086.446.077a.988.988 0 0 0 .434-.127l6.28-3.63c.27-.16.31-.38.09-.51l-5.54-3.24Zm14.72-2.1-14.25-8.23a1.002 1.002 0 0 0-.88.05l-6.28 3.63c-.27.15-.31.38-.09.5l14.25 8.24c.141.06.293.086.446.077a.988.988 0 0 0 .434-.127l6.28-3.63c.27-.17.31-.39.14-.52l-.05.01Zm-96.86 49.52a1.002 1.002 0 0 0-.88.05l-7.73 4.46c-.27.16-.31.38-.09.51l5.54 3.2c.141.06.293.086.446.077a.988.988 0 0 0 .434-.127l7.73-4.47c.27-.15.31-.38.09-.5l-5.54-3.2Zm23.19-13.39a1.002 1.002 0 0 0-.88.05l-9.66 5.58c-.27.15-.31.38-.09.5l5.54 3.2c.141.06.293.086.446.077a.988.988 0 0 0 .434-.127l9.66-5.58c.27-.15.31-.38.09-.5l-5.54-3.2ZM194.82 313a1.004 1.004 0 0 0-.87 0l-51.71 29.85c-.26.16-.3.39-.08.51l5.54 3.2c.141.06.293.086.446.077a.988.988 0 0 0 .434-.127l51.7-29.85c.27-.15.3-.38.09-.51l-5.55-3.15Zm-54.6 31.53a1.002 1.002 0 0 0-.88.05l-7.73 4.42c-.27.16-.3.38-.09.51l5.55 3.2a.995.995 0 0 0 .87-.05l7.74-4.47c.26-.15.3-.38.08-.5l-5.54-3.16Zm65.23-37.66a.929.929 0 0 0-.87.05l-7.74 4.46c-.26.15-.3.38-.08.51l5.54 3.2c.141.06.293.086.446.077a.988.988 0 0 0 .434-.127l7.73-4.47c.27-.15.3-.38.09-.51l-5.55-3.19Zm-75.86 43.79a1.003 1.003 0 0 0-.88.06l-7.71 4.43c-.27.15-.3.38-.09.51l5.55 3.2a.995.995 0 0 0 .87-.05l7.74-4.47c.26-.15.3-.38.08-.51l-5.56-3.17Zm97.13-56.07a1.002 1.002 0 0 0-.88.05l-7.73 4.46c-.27.16-.31.39-.09.51l5.54 3.2a1.003 1.003 0 0 0 .88 0l7.73-4.46c.27-.16.31-.38.09-.51l-5.54-3.25Zm32.85-19a1.002 1.002 0 0 0-.88.05l-6.28 3.63c-.26.15-.3.38-.08.5l5.54 3.2a.992.992 0 0 0 .88-.05l6.25-3.62c.26-.16.3-.38.08-.51l-5.51-3.2Zm19.94-14.72 6.28-3.62c.27-.16.3-.38.09-.51l-5.55-3.2a1.007 1.007 0 0 0-.87 0l-6.29 3.63c-.26.15-.3.38-.08.51l5.54 3.19a1.003 1.003 0 0 0 .88 0Zm-37.73 1.66 6.29-3.63c.26-.15.3-.38.08-.51l-5.54-3.19a1.002 1.002 0 0 0-.88.05l-6.28 3.62c-.27.16-.3.38-.09.51l5.54 3.2a.992.992 0 0 0 .88-.05Zm-24.12 34.05L236 286c.27-.15.3-.38.09-.51l-5.55-3.19a.929.929 0 0 0-.87.05l-18.37 10.6c-.26.15-.3.38-.08.51l5.54 3.19c.145.06.302.085.459.072a.989.989 0 0 0 .441-.142Zm51.79-30.35c.141.06.293.086.446.077a.988.988 0 0 0 .434-.127l6.28-3.63c.26-.16.3-.38.08-.51l-5.54-3.2a1.007 1.007 0 0 0-.87.05l-6.28 3.63c-.26.15-.3.38-.08.51l5.53 3.2Zm-7.84-5.09 6.28-3.62c.27-.16.31-.38.09-.51l-5.54-3.2a1.002 1.002 0 0 0-.88.05l-6.28 3.63c-.27.15-.31.38-.09.51l5.54 3.19c.141.06.293.086.446.077a.988.988 0 0 0 .434-.127Zm-53.13 40.74 6.28-3.62c.26-.16.3-.38.08-.51l-5.54-3.2a1.002 1.002 0 0 0-.88.05l-6.28 3.63c-.26.15-.3.38-.08.51l5.54 3.19c.141.06.293.086.446.077a.988.988 0 0 0 .434-.127Zm40.67-23.94a.992.992 0 0 0 .88-.05l6.28-3.62c.27-.16.31-.39.09-.51l-5.54-3.2a1.002 1.002 0 0 0-.88.05l-6.28 3.63c-.27.15-.31.38-.09.5l5.54 3.2Zm-86.58 50.45 6.28-3.63c.27-.15.31-.38.09-.51l-5.54-3.2a1.002 1.002 0 0 0-.88.05l-6.28 3.63c-.27.16-.31.38-.09.51l5.54 3.2a.992.992 0 0 0 .88-.05Zm9.18-5.3 6.28-3.63c.27-.15.31-.38.09-.51l-5.54-3.2a1.002 1.002 0 0 0-.88.05l-6.28 3.63c-.27.15-.31.38-.09.51l5.54 3.2c.141.06.293.086.446.077a.988.988 0 0 0 .434-.127Zm-18.36 10.6 6.28-3.63c.27-.15.31-.38.09-.51l-5.54-3.2a1 1 0 0 0-.88 0l-6.28 3.65c-.27.16-.31.38-.09.51l5.54 3.2a.994.994 0 0 0 .88-.02Zm36.72-21.2 6.29-3.63c.26-.16.3-.38.08-.51l-5.54-3.2a1.002 1.002 0 0 0-.88.05l-6.28 3.63c-.27.15-.3.38-.09.51l5.54 3.2c.141.06.293.086.446.077a.988.988 0 0 0 .434-.127Zm-9.18 5.3 6.28-3.63c.27-.15.31-.38.09-.51l-5.54-3.2a1.002 1.002 0 0 0-.88.05l-6.28 3.63c-.27.15-.31.38-.09.51l5.54 3.2a.992.992 0 0 0 .88-.05Zm18.36-10.61 6.29-3.62c.26-.16.3-.38.08-.51l-5.54-3.2a1 1 0 0 0-.88 0l-6.24 3.68c-.26.15-.3.38-.08.51l5.54 3.2c.135.05.278.071.422.061a1.01 1.01 0 0 0 .408-.121ZM250 233.81a.995.995 0 0 0 .87-.05l6.29-3.63c.26-.15.3-.38.08-.5l-1.47-.86a1.002 1.002 0 0 0-.88.05l-6.28 3.63c-.27.16-.31.38-.09.51l1.48.85Zm-45.78 28.79c.141.06.293.086.446.077a.988.988 0 0 0 .434-.127l6.28-3.62c.27-.16.31-.39.09-.51l-5.54-3.2a1 1 0 0 0-.88 0l-6.28 3.63c-.27.15-.31.38-.09.5l5.54 3.25Zm18.36-10.6c.141.06.293.086.446.077a.988.988 0 0 0 .434-.127l6.28-3.63c.27-.15.31-.38.09-.5l-5.54-3.2a1.002 1.002 0 0 0-.88.05l-6.28 3.63c-.27.15-.31.38-.09.5l5.54 3.2ZM193 269.08a.993.993 0 0 0 .88-.06l6.28-3.62c.27-.16.31-.38.09-.51l-5.54-3.2a1.002 1.002 0 0 0-.88.05l-6.28 3.63c-.27.15-.31.38-.09.51l5.54 3.2Zm20.4-11.78c.141.06.293.086.446.077a.988.988 0 0 0 .434-.127l6.28-3.62c.27-.16.31-.39.09-.51l-5.54-3.2a1.002 1.002 0 0 0-.88.05L208 253.6c-.27.15-.31.38-.09.5l5.49 3.2Zm-38.75 22.38c.141.06.293.086.446.077a.988.988 0 0 0 .434-.127l6.28-3.63c.27-.15.31-.38.09-.51l-5.54-3.2a1 1 0 0 0-.88 0L169.2 276c-.27.15-.31.38-.09.51l5.54 3.17Zm9.18-5.3a.992.992 0 0 0 .88-.05l6.29-3.63c.27-.16.31-.38.09-.51l-5.54-3.2a1.002 1.002 0 0 0-.88.05l-6.28 3.63c-.27.15-.31.38-.09.51l5.53 3.2Zm47.83-30c.141.06.293.086.446.077a.988.988 0 0 0 .434-.127l6.28-3.63c.27-.15.31-.38.09-.5l-1.47-.85a1.002 1.002 0 0 0-.88.05l-6.28 3.62c-.27.16-.31.38-.09.51l1.47.85Zm27.55-15.9a.992.992 0 0 0 .88-.05l6.28-3.63c.26-.15.3-.38.08-.5l-1.47-.86a1.002 1.002 0 0 0-.88.05l-6.28 3.63c-.27.15-.31.38-.09.51l1.48.85Zm11.64 6.72c.141.06.293.086.446.077a.988.988 0 0 0 .434-.127l6.28-3.63c.26-.15.3-.38.09-.5l-5.55-3.2a1 1 0 0 0-.88 0l-6.28 3.62c-.26.16-.3.39-.08.51l5.54 3.25Zm17.84 20.34L295 252c.27-.16.31-.38.09-.51l-5.54-3.2a1.002 1.002 0 0 0-.88.05l-6.29 3.63c-.26.15-.3.38-.08.51l5.54 3.19a1.007 1.007 0 0 0 .85-.1v-.03Zm-47.85-16.46a.992.992 0 0 0 .88-.05l6.29-3.63c.26-.15.3-.38.08-.5l-1.47-.86a1.003 1.003 0 0 0-.88.06l-6.28 3.62c-.27.16-.31.38-.09.51l1.47.85ZM165.47 285a.992.992 0 0 0 .88-.05l6.28-3.63c.27-.15.31-.38.09-.51l-5.54-3.2a1.002 1.002 0 0 0-.88.05l-6.3 3.61c-.26.15-.3.38-.08.51l5.55 3.22Z" fill="#31B34E"/><path opacity=".1" d="m232.6 267.83 6.28-3.63c.27-.15.31-.38.09-.5l-5.54-3.2a1.002 1.002 0 0 0-.88.05l-6.28 3.62c-.27.16-.31.38-.09.51l5.54 3.2c.141.06.293.086.446.077a.988.988 0 0 0 .434-.127Zm-8.76-12.31-6.28 3.62c-.27.16-.31.38-.09.51l5.54 3.2c.141.06.293.086.446.077a.988.988 0 0 0 .434-.127l6.28-3.63c.27-.15.31-.38.09-.51l-5.54-3.19a1.002 1.002 0 0 0-.88.05Zm-20.3 11.71-10.63 6.14c-.26.15-.3.38-.09.51l5.55 3.2c.141.06.293.086.446.077a.988.988 0 0 0 .434-.127l10.63-6.14c.26-.15.3-.38.08-.51l-5.54-3.2a1.002 1.002 0 0 0-.88.05Zm11.12-6.41-6.29 3.62c-.26.16-.3.38-.08.51l5.54 3.2a1.003 1.003 0 0 0 .88 0l6.28-3.63c.27-.15.31-.38.09-.5l-5.54-3.2a1 1 0 0 0-.88 0ZM190 275l-6.28 3.63c-.27.15-.3.38-.09.51l5.55 3.2a.995.995 0 0 0 .87-.05l6.29-3.63c.26-.15.3-.38.08-.51l-5.54-3.2a1.002 1.002 0 0 0-.88.05Zm-9.18 5.3-6.27 3.7c-.27.16-.31.38-.09.51l5.54 3.2a.992.992 0 0 0 .88-.05l6.29-3.63c.26-.15.3-.38.08-.51l-5.54-3.2a1.005 1.005 0 0 0-.88.02l-.01-.04Zm23.28 14 6.28-3.62c.27-.16.31-.39.09-.51l-5.54-3.2a1.002 1.002 0 0 0-.88.05l-6.28 3.63c-.27.15-.31.38-.09.5l5.54 3.2a1.005 1.005 0 0 0 .89-.01l-.01-.04Zm-9.18 5.3 6.28-3.62c.27-.16.31-.38.09-.51l-5.54-3.2a1.002 1.002 0 0 0-.88.05L188.6 296c-.27.15-.31.38-.09.5l5.54 3.2a.993.993 0 0 0 .88-.06l-.01-.04Zm-9.18 5.3 6.28-3.62c.27-.16.31-.38.09-.51l-5.54-3.2a1.002 1.002 0 0 0-.88.05l-6.28 3.63c-.27.15-.31.38-.09.5l5.54 3.2a1.005 1.005 0 0 0 .89-.01l-.01-.04Zm-9.18 5.3 6.28-3.62c.27-.16.31-.38.09-.51l-5.54-3.2a1 1 0 0 0-.88 0l-6.28 3.63c-.27.15-.31.38-.09.51l5.54 3.19a1.001 1.001 0 0 0 .89.04l-.01-.04Zm46.85-37.11 6.28-3.63c.27-.15.31-.38.09-.5l-5.54-3.2a1.002 1.002 0 0 0-.88.05l-6.28 3.62c-.27.16-.31.39-.09.51l5.54 3.2a1.005 1.005 0 0 0 .89-.01l-.01-.04ZM213.29 289l14-8.09c.27-.15.31-.38.09-.51l-14.25-8.23a1.002 1.002 0 0 0-.88.05l-7.25 4.23c-.27.15-.31.38-.09.51l7.92 4.57c.22.13.18.35-.08.51l-5.8 3.35c-.27.15-.31.38-.09.5l5.54 3.2a.997.997 0 0 0 .89-.09Zm-41.64-3.39-6.28 3.62c-.27.16-.31.38-.09.51l5.54 3.2c.141.06.293.086.446.077a.988.988 0 0 0 .434-.127l6.3-3.59c.27-.15.31-.38.09-.51l-5.54-3.2a.995.995 0 0 0-.9.06v-.04Zm-9.18 5.3-6.28 3.62c-.27.16-.31.38-.09.51l5.54 3.2a1.003 1.003 0 0 0 .88 0l6.28-3.63c.27-.15.31-.38.09-.51l-5.54-3.19a1 1 0 0 0-.88.09v-.09Zm-51.05 56.49a1.003 1.003 0 0 0 .88 0l6.28-3.63c.27-.15.31-.38.09-.51l-5.54-3.2a1.003 1.003 0 0 0-.88.06l-6.25 3.57c-.27.16-.31.38-.09.51l5.51 3.2Zm-22.4-14-6.28 3.6c-.26.15-.3.38-.09.5l5.55 3.2a.931.931 0 0 0 .87-.05l6.29-3.62c.26-.16.3-.38.08-.51l-5.54-3.2a.999.999 0 0 0-.9.03l.02.05Zm11.27 10.41c.141.06.293.086.446.077a.988.988 0 0 0 .434-.127l6.28-3.62c.27-.16.31-.39.09-.51l-5.54-3.2a1.002 1.002 0 0 0-.88.05l-6.28 3.63c-.27.15-.31.38-.09.5l5.54 3.2Zm25.56 5.83 6.28-3.63c.27-.15.31-.38.09-.5l-5.54-3.2a1.002 1.002 0 0 0-.88.05l-6.28 3.62c-.27.16-.31.38-.09.51l5.54 3.2a1.007 1.007 0 0 0 .88-.1v.05Zm-10.06 5.35c.141.06.293.086.446.077a.988.988 0 0 0 .434-.127l6.28-3.63c.27-.15.3-.38.09-.5l-5.55-3.2a.929.929 0 0 0-.87.05l-6.29 3.62c-.26.16-.3.39-.08.51l5.54 3.2ZM98.2 328.05l-6.28 3.63c-.26.15-.3.38-.08.5l5.54 3.2a.991.991 0 0 0 .88-.05l6.28-3.62c.26-.16.3-.38.08-.51l-5.54-3.2a1.002 1.002 0 0 0-.88.05Zm45.91-26.5-6.28 3.62c-.27.16-.31.39-.09.51l5.54 3.2a.992.992 0 0 0 .88-.05l6.28-3.63c.27-.15.31-.38.09-.5l-5.53-3.2a1.01 1.01 0 0 0-.451-.08 1.016 1.016 0 0 0-.439.13Zm-36.72 21.2-6.29 3.63c-.26.15-.3.38-.08.5l5.54 3.2c.141.06.293.086.446.077a.988.988 0 0 0 .434-.127l6.28-3.62c.27-.16.3-.39.09-.51l-5.55-3.2a1.007 1.007 0 0 0-.87.05Zm45.9-26.5-6.29 3.62c-.27.16-.31.38-.09.51l5.54 3.2c.141.06.293.086.446.077a.988.988 0 0 0 .434-.127l6.28-3.63c.27-.15.31-.38.09-.5l-5.54-3.2a1.007 1.007 0 0 0-.87.05Zm-18.36 10.6-6.28 3.62c-.27.16-.31.39-.09.51l5.54 3.2a.992.992 0 0 0 .88-.05l6.28-3.63c.27-.15.31-.38.09-.5l-5.54-3.2a1.002 1.002 0 0 0-.88.05Zm-9.18 5.3-6.28 3.63c-.27.15-.31.38-.09.5l5.54 3.2a.992.992 0 0 0 .88-.05l6.28-3.63c.27-.15.31-.38.09-.5l-5.54-3.2a1.002 1.002 0 0 0-.88.05Zm-9.18 5.3-6.29 3.63c-.26.15-.3.38-.08.5l5.54 3.2a1.003 1.003 0 0 0 .88 0l6.28-3.63c.27-.15.3-.38.09-.5l-5.54-3.2a1 1 0 0 0-.88 0Zm41.64 3.4 6.28-3.63c.26-.16.3-.38.09-.51l-5.55-3.2a1.002 1.002 0 0 0-.88.05l-6.28 3.63c-.26.15-.3.38-.08.51l5.54 3.2a.992.992 0 0 0 .88-.05Zm85.92-77.05-6.28 3.63c-.27.15-.31.38-.09.5l5.54 3.2c.141.06.293.086.446.077a.988.988 0 0 0 .434-.127l6.28-3.63c.27-.15.31-.38.09-.5l-5.54-3.2a1.002 1.002 0 0 0-.88.05ZM233 250.22l-6.28 3.62c-.27.16-.31.38-.09.51l5.54 3.2c.141.06.293.086.446.077a.988.988 0 0 0 .434-.127l6.28-3.63c.27-.15.31-.38.09-.51l-5.54-3.2a1.003 1.003 0 0 0-.88.06Zm20.29-11.72-6.29 3.62c-.27.16-.3.39-.09.51l5.55 3.2a.931.931 0 0 0 .87-.05l6.29-3.63c.26-.15.3-.38.08-.5l-5.54-3.2a.989.989 0 0 0-.85.05h-.02Zm-51.15 46.91 6.28-3.63c.27-.16.31-.38.09-.51l-5.54-3.2a1.002 1.002 0 0 0-.88.05l-6.28 3.63c-.27.15-.31.38-.09.51l5.54 3.2a.994.994 0 0 0 .9-.05h-.02Zm61.21-52.26a1.002 1.002 0 0 0-.88.05l-6.28 3.62c-.26.16-.3.39-.08.51l5.54 3.2a.994.994 0 0 0 .87 0l6.29-3.63c.26-.15.3-.38.08-.5l-5.54-3.25Zm-96 82.39 6.28-3.62c.27-.16.3-.38.09-.51l-5.55-3.2a1.007 1.007 0 0 0-.87.05l-6.29 3.63c-.26.15-.3.38-.08.51l5.54 3.2a.992.992 0 0 0 .92-.06h-.04Zm112.58-65 6.29-3.62c.26-.16.3-.39.08-.51l-5.54-3.2a1.002 1.002 0 0 0-.88.05l-6.28 3.63c-.27.15-.31.38-.09.5l5.54 3.2a1 1 0 0 0 .95-.05h-.07Zm-17.89.27 6.28-3.62c.27-.16.31-.39.09-.51l-5.54-3.2a1 1 0 0 0-.88 0l-6.28 3.63c-.27.15-.31.38-.09.5l5.54 3.2a.995.995 0 0 0 .92 0h-.04Zm10-12.63a1.002 1.002 0 0 0-.88.05l-6.28 3.63c-.27.15-.31.38-.09.5l5.54 3.2c.141.06.293.086.446.077a.988.988 0 0 0 .434-.127l6.28-3.62c.27-.16.31-.39.09-.51l-5.54-3.2Zm1.93-1.12 14.26 8.23a.931.931 0 0 0 .87-.05l6.29-3.62c.26-.16.3-.39.08-.51l-14.25-8.23a1.002 1.002 0 0 0-.88.05l-6.28 3.62c-.22.16-.26.39-.06.51h-.03Zm-21.17 11.77-6.29 3.63c-.26.15-.3.38-.08.5l5.54 3.2c.141.06.293.086.446.077a.988.988 0 0 0 .434-.127l6.28-3.62c.27-.16.31-.39.09-.51l-5.54-3.2a.996.996 0 0 0-.83.05h-.05Zm-69.1 39.89-6.28 3.63c-.27.15-.31.38-.09.51l5.54 3.2c.141.06.293.086.446.077a.988.988 0 0 0 .434-.127l6.28-3.63c.27-.15.31-.38.09-.51l-5.54-3.2a.996.996 0 0 0-.83.05h-.05Zm86.16-32.83c.141.06.293.086.446.077a.988.988 0 0 0 .434-.127l6.28-3.62c.27-.16.31-.38.09-.51l-5.54-3.2a1.002 1.002 0 0 0-.88.05l-6.28 3.63c-.27.15-.31.38-.09.5l5.54 3.2Zm-77 27.53-6.28 3.63c-.27.15-.31.38-.09.51l5.54 3.2a.992.992 0 0 0 .88-.05l6.28-3.63c.27-.15.31-.38.09-.51l-5.54-3.2a1.006 1.006 0 0 0-.81.05h-.07ZM120.6 342.1c.141.06.293.086.446.077a.988.988 0 0 0 .434-.127l6.28-3.63c.27-.15.31-.38.09-.51l-5.54-3.2a1.002 1.002 0 0 0-.88.05l-6.28 3.63c-.27.16-.31.38-.09.51l5.54 3.2Zm-10.3-11-6.3 3.66c-.27.15-.31.38-.09.5l5.54 3.2a1.003 1.003 0 0 0 .88 0l6.28-3.63c.27-.15.31-.38.09-.5l-5.54-3.2a.998.998 0 0 0-.86 0v-.03Zm20.36 5.62 6.28-3.63c.27-.15.31-.38.09-.51l-5.54-3.2a1 1 0 0 0-.88 0l-6.28 3.63c-.27.15-.31.38-.09.51l5.54 3.2a.996.996 0 0 0 .88.03v-.03Zm9.18-5.3 6.29-3.63c.26-.15.3-.38.08-.51l-5.54-3.2a1.002 1.002 0 0 0-.88.05l-6.28 3.63c-.27.15-.3.38-.09.51l5.55 3.2a1 1 0 0 0 .87-.02v-.03Zm9.19-5.3 6.28-3.63c.26-.16.3-.38.08-.51l-5.54-3.2a1.002 1.002 0 0 0-.88.05l-6.28 3.63c-.26.15-.3.38-.08.51l5.54 3.2a1 1 0 0 0 .85-.02l.03-.03Zm-29.55-.32-6.28 3.62c-.27.16-.31.39-.09.51l5.54 3.2c.141.06.293.086.446.077a.988.988 0 0 0 .434-.127l6.28-3.63c.27-.15.31-.38.09-.5l-5.54-3.2a.997.997 0 0 0-.88.08v-.03Zm9.18-5.3-6.28 3.62c-.27.16-.3.38-.09.51l5.55 3.2a.995.995 0 0 0 .87-.05l6.29-3.63c.26-.15.3-.38.08-.5l-5.54-3.2a.997.997 0 0 0-.88.08v-.03Zm36.73-21.2-6.29 3.7c-.26.16-.3.38-.08.51l5.54 3.2c.141.06.293.086.446.077a.988.988 0 0 0 .434-.127l6.28-3.63c.27-.15.3-.38.09-.51l-5.54-3.2a1.003 1.003 0 0 0-.88.01v-.03Zm-9.18 5.3-6.29 3.62c-.26.16-.3.38-.08.51l5.54 3.2a1.003 1.003 0 0 0 .88 0l6.28-3.63c.27-.15.3-.38.09-.51l-5.55-3.2a1.002 1.002 0 0 0-.87.04v-.03Zm18.36-10.6-6.28 3.63c-.27.16-.31.38-.09.51l5.54 3.2a.992.992 0 0 0 .88-.05l6.28-3.63c.27-.15.31-.38.09-.51l-5.54-3.2a1.002 1.002 0 0 0-.88.05Zm-36.73 21.21-6.28 3.62c-.26.16-.3.38-.09.51l5.55 3.2a.992.992 0 0 0 .88-.05l6.28-3.63c.26-.15.3-.38.08-.5l-5.54-3.2a1.006 1.006 0 0 0-.88.07v-.02Zm9.18-5.3-6.28 3.62c-.26.16-.3.38-.08.51l5.54 3.2c.141.06.293.086.446.077a.988.988 0 0 0 .434-.127l6.28-3.63c.26-.15.3-.38.08-.51l-5.54-3.19a.997.997 0 0 0-.9.07l.02-.02Zm-12 34.36 6.28-3.63c.27-.15.31-.38.09-.51l-5.53-3.13a1.002 1.002 0 0 0-.88.05l-6.28 3.62c-.27.16-.31.38-.09.51l5.54 3.2a1.005 1.005 0 0 0 .85-.09l.02-.02Zm-48.77-2.49-5.54-3.2a1.001 1.001 0 0 0-.88 0l-6.28 3.63c-.27.15-.3.38-.09.51L79 346a.99.99 0 0 0 .88-.05l6.29-3.62c.27-.18.31-.4.09-.53l-.01-.02Zm12.1 3.08-5.54-3.2a1.001 1.001 0 0 0-.88.05l-9.66 5.58c-.27.15-.31.38-.09.51l5.54 3.2a1.002 1.002 0 0 0 .88 0l9.66-5.58c.28-.19.32-.42.1-.54l-.01-.02Zm-20.26-9.46-5.54-3.2a.93.93 0 0 0-.87 0L64 336.73c-.26.16-.3.38-.08.51l5.54 3.2a.99.99 0 0 0 .88-.05l7.73-4.47c.21-.15.25-.38.03-.5l-.01-.02ZM84 332a.99.99 0 0 0 .88-.05l6.28-3.62c.27-.16.31-.38.09-.51l-5.54-3.2a1.001 1.001 0 0 0-.88.05l-6.28 3.63c-.27.15-.31.38-.09.5L84 332Zm25.46 16.52-5.46-3.2a1.002 1.002 0 0 0-.88.05l-12.08 7c-.27.15-.31.38-.09.51l5.54 3.2a.991.991 0 0 0 .88-.05l12.08-7c.22-.16.26-.39.04-.52l-.03.01Zm4.37 7.55-5.55-3.2a.929.929 0 0 0-.87.05l-7.74 4.46c-.26.16-.3.38-.08.51l5.54 3.2a.996.996 0 0 0 .87-.09l7.73-4.47c.27-.12.34-.35.13-.47l-.03.01Zm38.43-63.48c.141.06.293.086.446.077a.988.988 0 0 0 .434-.127l6.28-3.62c.27-.16.31-.38.09-.51L154 285.2a1.002 1.002 0 0 0-.88.05l-6.28 3.63c-.27.15-.31.38-.09.5l5.51 3.21ZM133.9 303.2a.993.993 0 0 0 .88-.06l6.28-3.62c.27-.16.31-.38.09-.51l-5.54-3.2a1.002 1.002 0 0 0-.88.05l-6.28 3.63c-.27.15-.31.38-.09.51l5.54 3.2Zm-40.72 23.5a.99.99 0 0 0 .88-.05l6.28-3.62c.27-.16.31-.38.09-.51l-5.54-3.2a1.001 1.001 0 0 0-.88.05L87.76 323c-.27.15-.31.38-.09.5l5.51 3.2Zm49.9-28.81a.992.992 0 0 0 .88-.05l6.28-3.62c.27-.16.31-.38.09-.51l-5.54-3.2a1.002 1.002 0 0 0-.88.05l-6.28 3.63c-.27.15-.31.38-.09.51l5.54 3.19Zm-18.36 10.61a.993.993 0 0 0 .88-.06l6.28-3.62c.27-.16.31-.38.09-.51l-5.54-3.2a1 1 0 0 0-.88 0l-6.28 3.63c-.27.15-.31.38-.09.51l5.54 3.25ZM119 356.77a1.002 1.002 0 0 0-.88.05l-9.66 5.58c-.27.16-.31.38-.09.51l5.54 3.2c.141.06.293.086.446.077a.988.988 0 0 0 .434-.127l9.67-5.58c.26-.15.3-.38.08-.51l-5.54-3.2Zm-7.38-40.68a.93.93 0 0 0 .87 0l6.29-3.62c.26-.16.3-.39.08-.51l-5.54-3.2a1.002 1.002 0 0 0-.88.05l-6.28 3.63c-.27.15-.3.38-.09.5l5.55 3.15Zm-9.19 5.3c.141.06.293.086.446.077a.988.988 0 0 0 .434-.127l6.28-3.62c.27-.16.31-.39.09-.51L104.1 314a1.002 1.002 0 0 0-.88.05l-6.28 3.63c-.27.15-.31.38-.09.5l5.58 3.21Zm186.66-62.82a1.002 1.002 0 0 0-.88.05l-15.46 8.93c-.27.15-.31.38-.09.51l5.54 3.2c.141.06.293.086.446.077a.988.988 0 0 0 .434-.127l15.46-8.93c.27-.16.31-.38.09-.51l-5.54-3.2Zm-20.3 11.72a1.004 1.004 0 0 0-.87 0l-6.33 3.71c-.26.15-.3.38-.08.5l5.54 3.2c.141.06.293.086.446.077a.988.988 0 0 0 .434-.127l6.28-3.62c.27-.16.3-.39.09-.51l-5.51-3.23ZM144.21 339l6.28-3.63c.27-.15.31-.38.09-.51l-5.54-3.2a1.003 1.003 0 0 0-.88.06l-6.28 3.62c-.27.16-.31.38-.09.51l5.54 3.2a.992.992 0 0 0 .88-.05Zm106.18-58.1a1.002 1.002 0 0 0-.88.05l-6.28 3.63c-.26.15-.3.38-.09.51l5.55 3.19a.93.93 0 0 0 .87 0l6.29-3.62c.26-.16.3-.38.08-.51l-5.54-3.25Zm47.84-27.62a1.002 1.002 0 0 0-.88.05l-6.28 3.67c-.27.15-.31.38-.09.51l5.54 3.2c.141.06.293.086.446.077a.988.988 0 0 0 .434-.127l6.28-3.63c.27-.16.31-.38.09-.51l-5.54-3.24Zm14.72-2.1-14.25-8.23a1.002 1.002 0 0 0-.88.05l-6.28 3.63c-.27.15-.31.38-.09.5l14.25 8.24c.141.06.293.086.446.077a.988.988 0 0 0 .434-.127l6.28-3.63c.27-.17.31-.39.14-.52l-.05.01Zm-96.86 49.52a1.002 1.002 0 0 0-.88.05l-7.73 4.46c-.27.16-.31.38-.09.51l5.54 3.2c.141.06.293.086.446.077a.988.988 0 0 0 .434-.127l7.73-4.47c.27-.15.31-.38.09-.5l-5.54-3.2Zm23.19-13.39a1.002 1.002 0 0 0-.88.05l-9.66 5.58c-.27.15-.31.38-.09.5l5.54 3.2c.141.06.293.086.446.077a.988.988 0 0 0 .434-.127l9.66-5.58c.27-.15.31-.38.09-.5l-5.54-3.2ZM194.82 313a1.004 1.004 0 0 0-.87 0l-51.71 29.85c-.26.16-.3.39-.08.51l5.54 3.2c.141.06.293.086.446.077a.988.988 0 0 0 .434-.127l51.7-29.85c.27-.15.3-.38.09-.51l-5.55-3.15Zm-54.6 31.53a1.002 1.002 0 0 0-.88.05l-7.73 4.42c-.27.16-.3.38-.09.51l5.55 3.2a.995.995 0 0 0 .87-.05l7.74-4.47c.26-.15.3-.38.08-.5l-5.54-3.16Zm65.23-37.66a.929.929 0 0 0-.87.05l-7.74 4.46c-.26.15-.3.38-.08.51l5.54 3.2c.141.06.293.086.446.077a.988.988 0 0 0 .434-.127l7.73-4.47c.27-.15.3-.38.09-.51l-5.55-3.19Zm-75.86 43.79a1.003 1.003 0 0 0-.88.06l-7.71 4.43c-.27.15-.3.38-.09.51l5.55 3.2a.995.995 0 0 0 .87-.05l7.74-4.47c.26-.15.3-.38.08-.51l-5.56-3.17Zm97.13-56.07a1.002 1.002 0 0 0-.88.05l-7.73 4.46c-.27.16-.31.39-.09.51l5.54 3.2a1.003 1.003 0 0 0 .88 0l7.73-4.46c.27-.16.31-.38.09-.51l-5.54-3.25Zm32.85-19a1.002 1.002 0 0 0-.88.05l-6.28 3.63c-.26.15-.3.38-.08.5l5.54 3.2a.992.992 0 0 0 .88-.05l6.25-3.62c.26-.16.3-.38.08-.51l-5.51-3.2Zm19.94-14.72 6.28-3.62c.27-.16.3-.38.09-.51l-5.55-3.2a1.007 1.007 0 0 0-.87 0l-6.29 3.63c-.26.15-.3.38-.08.51l5.54 3.19a1.003 1.003 0 0 0 .88 0Zm-37.73 1.66 6.29-3.63c.26-.15.3-.38.08-.51l-5.54-3.19a1.002 1.002 0 0 0-.88.05l-6.28 3.62c-.27.16-.3.38-.09.51l5.54 3.2a.992.992 0 0 0 .88-.05Zm-24.12 34.05L236 286c.27-.15.3-.38.09-.51l-5.55-3.19a.929.929 0 0 0-.87.05l-18.37 10.6c-.26.15-.3.38-.08.51l5.54 3.19c.145.06.302.085.459.072a.989.989 0 0 0 .441-.142Zm51.79-30.35c.141.06.293.086.446.077a.988.988 0 0 0 .434-.127l6.28-3.63c.26-.16.3-.38.08-.51l-5.54-3.2a1.007 1.007 0 0 0-.87.05l-6.28 3.63c-.26.15-.3.38-.08.51l5.53 3.2Zm-7.84-5.09 6.28-3.62c.27-.16.31-.38.09-.51l-5.54-3.2a1.002 1.002 0 0 0-.88.05l-6.28 3.63c-.27.15-.31.38-.09.51l5.54 3.19c.141.06.293.086.446.077a.988.988 0 0 0 .434-.127Zm-53.13 40.74 6.28-3.62c.26-.16.3-.38.08-.51l-5.54-3.2a1.002 1.002 0 0 0-.88.05l-6.28 3.63c-.26.15-.3.38-.08.51l5.54 3.19c.141.06.293.086.446.077a.988.988 0 0 0 .434-.127Zm40.67-23.94a.992.992 0 0 0 .88-.05l6.28-3.62c.27-.16.31-.39.09-.51l-5.54-3.2a1.002 1.002 0 0 0-.88.05l-6.28 3.63c-.27.15-.31.38-.09.5l5.54 3.2Zm-86.58 50.45 6.28-3.63c.27-.15.31-.38.09-.51l-5.54-3.2a1.002 1.002 0 0 0-.88.05l-6.28 3.63c-.27.16-.31.38-.09.51l5.54 3.2a.992.992 0 0 0 .88-.05Zm9.18-5.3 6.28-3.63c.27-.15.31-.38.09-.51l-5.54-3.2a1.002 1.002 0 0 0-.88.05l-6.28 3.63c-.27.15-.31.38-.09.51l5.54 3.2c.141.06.293.086.446.077a.988.988 0 0 0 .434-.127Zm-18.36 10.6 6.28-3.63c.27-.15.31-.38.09-.51l-5.54-3.2a1 1 0 0 0-.88 0l-6.28 3.65c-.27.16-.31.38-.09.51l5.54 3.2a.994.994 0 0 0 .88-.02Zm36.72-21.2 6.29-3.63c.26-.16.3-.38.08-.51l-5.54-3.2a1.002 1.002 0 0 0-.88.05l-6.28 3.63c-.27.15-.3.38-.09.51l5.54 3.2c.141.06.293.086.446.077a.988.988 0 0 0 .434-.127Zm-9.18 5.3 6.28-3.63c.27-.15.31-.38.09-.51l-5.54-3.2a1.002 1.002 0 0 0-.88.05l-6.28 3.63c-.27.15-.31.38-.09.51l5.54 3.2a.992.992 0 0 0 .88-.05Zm18.36-10.61 6.29-3.62c.26-.16.3-.38.08-.51l-5.54-3.2a1 1 0 0 0-.88 0l-6.24 3.68c-.26.15-.3.38-.08.51l5.54 3.2c.135.05.278.071.422.061a1.01 1.01 0 0 0 .408-.121ZM250 233.81a.995.995 0 0 0 .87-.05l6.29-3.63c.26-.15.3-.38.08-.5l-1.47-.86a1.002 1.002 0 0 0-.88.05l-6.28 3.63c-.27.16-.31.38-.09.51l1.48.85Zm-45.78 28.79c.141.06.293.086.446.077a.988.988 0 0 0 .434-.127l6.28-3.62c.27-.16.31-.39.09-.51l-5.54-3.2a1 1 0 0 0-.88 0l-6.28 3.63c-.27.15-.31.38-.09.5l5.54 3.25Zm18.36-10.6c.141.06.293.086.446.077a.988.988 0 0 0 .434-.127l6.28-3.63c.27-.15.31-.38.09-.5l-5.54-3.2a1.002 1.002 0 0 0-.88.05l-6.28 3.63c-.27.15-.31.38-.09.5l5.54 3.2ZM193 269.08a.993.993 0 0 0 .88-.06l6.28-3.62c.27-.16.31-.38.09-.51l-5.54-3.2a1.002 1.002 0 0 0-.88.05l-6.28 3.63c-.27.15-.31.38-.09.51l5.54 3.2Zm20.4-11.78c.141.06.293.086.446.077a.988.988 0 0 0 .434-.127l6.28-3.62c.27-.16.31-.39.09-.51l-5.54-3.2a1.002 1.002 0 0 0-.88.05L208 253.6c-.27.15-.31.38-.09.5l5.49 3.2Zm-38.75 22.38c.141.06.293.086.446.077a.988.988 0 0 0 .434-.127l6.28-3.63c.27-.15.31-.38.09-.51l-5.54-3.2a1 1 0 0 0-.88 0L169.2 276c-.27.15-.31.38-.09.51l5.54 3.17Zm9.18-5.3a.992.992 0 0 0 .88-.05l6.29-3.63c.27-.16.31-.38.09-.51l-5.54-3.2a1.002 1.002 0 0 0-.88.05l-6.28 3.63c-.27.15-.31.38-.09.51l5.53 3.2Zm47.83-30c.141.06.293.086.446.077a.988.988 0 0 0 .434-.127l6.28-3.63c.27-.15.31-.38.09-.5l-1.47-.85a1.002 1.002 0 0 0-.88.05l-6.28 3.62c-.27.16-.31.38-.09.51l1.47.85Zm27.55-15.9a.992.992 0 0 0 .88-.05l6.28-3.63c.26-.15.3-.38.08-.5l-1.47-.86a1.002 1.002 0 0 0-.88.05l-6.28 3.63c-.27.15-.31.38-.09.51l1.48.85Zm11.64 6.72c.141.06.293.086.446.077a.988.988 0 0 0 .434-.127l6.28-3.63c.26-.15.3-.38.09-.5l-5.55-3.2a1 1 0 0 0-.88 0l-6.28 3.62c-.26.16-.3.39-.08.51l5.54 3.25Zm17.84 20.34L295 252c.27-.16.31-.38.09-.51l-5.54-3.2a1.002 1.002 0 0 0-.88.05l-6.29 3.63c-.26.15-.3.38-.08.51l5.54 3.19a1.007 1.007 0 0 0 .85-.1v-.03Zm-47.85-16.46a.992.992 0 0 0 .88-.05l6.29-3.63c.26-.15.3-.38.08-.5l-1.47-.86a1.003 1.003 0 0 0-.88.06l-6.28 3.62c-.27.16-.31.38-.09.51l1.47.85ZM165.47 285a.992.992 0 0 0 .88-.05l6.28-3.63c.27-.15.31-.38.09-.51l-5.54-3.2a1.002 1.002 0 0 0-.88.05l-6.3 3.61c-.26.15-.3.38-.08.51l5.55 3.22Z" fill="#000"/><path opacity=".4" d="m193.58 332.39 1.29.74 34.21 19.75 60.84-35.13 1.26-.72-35.5-20.49-62.1 35.85Z" fill="#000"/><path d="m194.871 333.13 34.21 19.75 60.84-35.13-34.24-19.75-60.81 35.13Z" fill="#31B34E"/><path opacity=".45" d="m194.871 333.13 34.21 19.75 60.84-35.13-34.24-19.75-60.81 35.13Z" fill="#000"/><path d="M18.15 326a8.772 8.772 0 0 0 1.73.74 7.706 7.706 0 0 1-1.73-.73 4.355 4.355 0 0 1-.54-.35c.17.11.39.22.54.34ZM28 326.519l.09-.08-.07.07-.02.01Z" fill="#31B34E"/><path d="M281.64 31.88a1.36 1.36 0 0 0-.07-.4v-.08a2.016 2.016 0 0 0-.1-.39 1.867 1.867 0 0 0-.26-.55.69.69 0 0 0-.14-.23.675.675 0 0 0-.13-.16c-.08-.105-.175-.199-.28-.28a1.674 1.674 0 0 0-.37-.21 3.16 3.16 0 0 0-2.92.37L56.85 156.952a9.616 9.616 0 0 0-4.34 7.52v159.33a2.998 2.998 0 0 0 1.49 2.62l.18.11.22.13c.118.053.242.093.37.12.182.051.37.078.56.08a2.809 2.809 0 0 0 1.44-.42l.11-.06 4.18-2.38 216.27-124.6a9.589 9.589 0 0 0 4.34-7.52V32.421c0-.18-.01-.361-.03-.54Z" fill="#455A64"/><path d="M280.25 29.55a3.162 3.162 0 0 0-2.92.37l-220.52 127a9.629 9.629 0 0 0-4.34 7.52v14.17l-5.54-3.25v-14.1a9.581 9.581 0 0 1 4.33-7.5l220.54-127a2.997 2.997 0 0 1 3.14-.26c.79.5 4.39 2.56 5.31 3.05Z" fill="#31B34E"/><path d="M281.659 32.39c0-2.74-2-3.84-4.33-2.47L56.799 156.9a9.578 9.578 0 0 0-4.33 7.5v14.18l229.19-132V32.39Z" fill="#31B34E"/><path opacity=".5" d="M277.329 29.92 56.809 156.9a8.74 8.74 0 0 0-3 3.21l-5.51-3.19a8.732 8.732 0 0 1 3-3.16l220.54-127a3 3 0 0 1 3.14-.25c.78.47 4.38 2.52 5.29 3a3.123 3.123 0 0 0-2.94.41Z" fill="#fff"/><path opacity=".15" d="M46.93 175.351v-14.09a8.888 8.888 0 0 1 1.32-4.34l5.52 3.18a8.688 8.688 0 0 0-1.3 4.31v14.17l-5.54-3.23Z" fill="#000"/><path d="M255.999 48.46c-1.35.78-2.45 3.1-2.45 5.18 0 2.08 1.1 3.14 2.45 2.36 1.35-.78 2.45-3.1 2.45-5.19 0-2.09-1.07-3.13-2.45-2.35ZM264.85 43.36c-1.35.78-2.45 3.1-2.45 5.18 0 2.08 1.1 3.14 2.45 2.36 1.35-.78 2.45-3.1 2.45-5.19 0-2.09-1.1-3.13-2.45-2.35ZM273.659 38.26c-1.35.78-2.44 3.1-2.44 5.18 0 2.08 1.09 3.14 2.44 2.36 1.35-.78 2.45-3.1 2.45-5.19 0-2.09-1.11-3.13-2.45-2.35Z" fill="#FAFAFA"/><path d="m54 326.42-.24-.13-4.57-2.64a4.578 4.578 0 0 1-2.19-3.36 4.445 4.445 0 0 1 0-.63V175.33l5.54 3.25v145.21a2.945 2.945 0 0 0 1.38 2.51l.08.12Z" fill="#37474F"/><path d="m78.929 175.26 63.42-36.82c.85-.49 1.54-.15 1.54.78a3.297 3.297 0 0 1-1.54 2.55l-63.42 36.83c-.85.49-1.54.14-1.54-.78a3.307 3.307 0 0 1 1.54-2.56ZM95.41 206.41l170.849-99.2c.85-.49 1.54-.14 1.54.78a3.319 3.319 0 0 1-1.54 2.56l-170.85 99.2c-.85.49-1.54.14-1.54-.78a3.32 3.32 0 0 1 1.54-2.56ZM95.41 218l170.849-99.21c.85-.49 1.54-.14 1.54.78a3.305 3.305 0 0 1-1.54 2.56L95.409 221.3c-.85.49-1.54.14-1.54-.78a3.294 3.294 0 0 1 1.54-2.52ZM148.319 135l118.88-68.56c.85-.49 1.54-.14 1.54.78a3.315 3.315 0 0 1-1.54 2.56l-118.88 68.55c-.85.49-1.54.14-1.54-.78a3.314 3.314 0 0 1 1.54-2.55ZM78.929 184.851l33.39-19.51c.85-.49 1.54-.15 1.54.78a3.297 3.297 0 0 1-1.54 2.55l-33.39 19.51c-.85.49-1.54.15-1.54-.78a3.297 3.297 0 0 1 1.54-2.55Z" fill="#31B34E"/><path opacity=".6" d="m78.929 184.851 33.39-19.51c.85-.49 1.54-.15 1.54.78a3.297 3.297 0 0 1-1.54 2.55l-33.39 19.51c-.85.49-1.54.15-1.54-.78a3.297 3.297 0 0 1 1.54-2.55Z" fill="#fff"/><path d="m78.929 194.381 17.88-10.38c.85-.5 1.54-.15 1.54.77a3.29 3.29 0 0 1-1.54 2.56l-17.88 10.4c-.85.49-1.54.14-1.54-.78a3.29 3.29 0 0 1 1.54-2.57Z" fill="#31B34E"/><path opacity=".6" d="m78.929 194.381 17.88-10.38c.85-.5 1.54-.15 1.54.77a3.29 3.29 0 0 1-1.54 2.56l-17.88 10.4c-.85.49-1.54.14-1.54-.78a3.29 3.29 0 0 1 1.54-2.57Z" fill="#fff"/><path d="m118.29 161.89 18.28-10.52c.85-.49 1.54-.14 1.54.78a3.305 3.305 0 0 1-1.54 2.56l-18.28 10.52c-.85.49-1.54.14-1.54-.78a3.28 3.28 0 0 1 1.54-2.56Z" fill="#31B34E"/><path opacity=".6" d="m118.29 161.89 18.28-10.52c.85-.49 1.54-.14 1.54.78a3.305 3.305 0 0 1-1.54 2.56l-18.28 10.52c-.85.49-1.54.14-1.54-.78a3.28 3.28 0 0 1 1.54-2.56Z" fill="#fff"/><path d="m151.999 207.371 115.2-66.37c.85-.5 1.54-.15 1.54.77a3.28 3.28 0 0 1-1.54 2.56l-115.2 66.38c-.85.49-1.54.14-1.54-.78a3.305 3.305 0 0 1 1.54-2.56ZM154.25 196.6l113-65.2c.85-.49 1.54-.14 1.54.78a3.305 3.305 0 0 1-1.54 2.56l-112.95 65.2c-.85.49-1.54.14-1.54-.78a3.314 3.314 0 0 1 1.49-2.56ZM106.62 224.491l41.66-24.44c.85-.49 1.54-.14 1.54.78a3.284 3.284 0 0 1-1.54 2.55l-41.66 24.45c-.85.49-1.54.14-1.54-.78a3.305 3.305 0 0 1 1.54-2.56Z" fill="#fff"/><path d="m104.188 179.72 125.15-72.48c.85-.49 1.54-.14 1.54.78a3.316 3.316 0 0 1-.464 1.464c-.268.444-.636.82-1.076 1.096l-125.15 72.48c-.85.49-1.54.14-1.54-.78a3.313 3.313 0 0 1 1.54-2.56ZM236.079 103.391l30.21-17c.85-.49 1.54-.14 1.54.78a3.304 3.304 0 0 1-1.54 2.56l-30.21 17c-.85.49-1.54.14-1.54-.78a3.305 3.305 0 0 1 1.54-2.56Z" fill="#EBEBEB"/><path d="m89.28 199 46.16-27.21c.85-.49 1.54-.14 1.54.78a3.284 3.284 0 0 1-1.54 2.55l-46.16 27.21c-.85.49-1.54.14-1.54-.78a3.29 3.29 0 0 1 1.54-2.55Z" fill="#31B34E"/><path opacity=".6" d="m89.28 199 46.16-27.21c.85-.49 1.54-.14 1.54.78a3.284 3.284 0 0 1-1.54 2.55l-46.16 27.21c-.85.49-1.54.14-1.54-.78a3.29 3.29 0 0 1 1.54-2.55Z" fill="#fff"/><path d="m141.409 168.3 124.88-71.69c.85-.49 1.54-.14 1.54.78a3.316 3.316 0 0 1-1.54 2.56l-124.88 71.69c-.85.49-1.54.14-1.54-.78a3.306 3.306 0 0 1 1.54-2.56Z" fill="#31B34E"/><path opacity=".6" d="m141.409 168.3 124.88-71.69c.85-.49 1.54-.14 1.54.78a3.316 3.316 0 0 1-1.54 2.56l-124.88 71.69c-.85.49-1.54.14-1.54-.78a3.306 3.306 0 0 1 1.54-2.56Z" fill="#fff"/><path d="m89.28 253.9 177.92-103c.85-.49 1.54-.14 1.54.78a3.292 3.292 0 0 1-1.54 2.56l-177.92 103c-.85.49-1.54.14-1.54-.78a3.308 3.308 0 0 1 1.54-2.56ZM89.28 263.45l177.92-103c.85-.49 1.54-.14 1.54.78a3.305 3.305 0 0 1-1.54 2.56l-177.92 103c-.85.5-1.54.15-1.54-.77a3.285 3.285 0 0 1 1.54-2.57ZM89.28 273 267.2 170c.85-.49 1.54-.14 1.54.78a3.309 3.309 0 0 1-1.54 2.56l-177.92 103c-.85.49-1.54.14-1.54-.78a3.29 3.29 0 0 1 1.54-2.56Z" fill="#EBEBEB"/><path d="m102.64 277.78 45.17-26.3c.85-.5 1.54-.15 1.54.77a3.293 3.293 0 0 1-1.54 2.56l-45.17 26.31c-.85.49-1.54.14-1.54-.78a3.312 3.312 0 0 1 1.54-2.56ZM153.78 247.91l113.42-65.26c.85-.49 1.54-.14 1.54.78a3.29 3.29 0 0 1-1.54 2.57l-113.42 65.25c-.85.49-1.54.14-1.54-.78a3.332 3.332 0 0 1 1.54-2.56ZM80.31 290.56l14.25-8.24c.85-.49 1.54-.14 1.54.78a3.31 3.31 0 0 1-1.54 2.56l-14.25 8.24c-.85.49-1.54.14-1.54-.78a3.308 3.308 0 0 1 1.54-2.56Z" fill="#31B34E"/><path opacity=".6" d="m80.31 290.56 14.25-8.24c.85-.49 1.54-.14 1.54.78a3.31 3.31 0 0 1-1.54 2.56l-14.25 8.24c-.85.49-1.54.14-1.54-.78a3.308 3.308 0 0 1 1.54-2.56Z" fill="#fff"/><path d="M80.31 299.19 94.56 291c.85-.49 1.54-.14 1.54.78a3.315 3.315 0 0 1-1.54 2.56l-14.25 8.24c-.85.49-1.54.14-1.54-.78a3.322 3.322 0 0 1 1.54-2.61Z" fill="#31B34E"/><path opacity=".6" d="M80.31 299.19 94.56 291c.85-.49 1.54-.14 1.54.78a3.315 3.315 0 0 1-1.54 2.56l-14.25 8.24c-.85.49-1.54.14-1.54-.78a3.322 3.322 0 0 1 1.54-2.61Z" fill="#fff"/><path d="m102.688 286 164.51-95c.85-.49 1.54-.15 1.54.78a3.296 3.296 0 0 1-1.54 2.55l-164.51 94.96c-.85.49-1.54.14-1.54-.78a3.328 3.328 0 0 1 1.54-2.51Z" fill="#fff"/><path d="m61.88 305.071 8.38-4.84c.84-.48 1.52-.09 1.52.88v3.08a3.384 3.384 0 0 1-1.52 2.64l-8.38 4.84c-.84.48-1.52.09-1.52-.88v-3.08a3.392 3.392 0 0 1 1.52-2.64ZM61.88 268.321l8.38-4.84c.84-.48 1.52-.09 1.52.88v3.08a3.384 3.384 0 0 1-1.52 2.64l-8.38 4.83c-.84.49-1.52.1-1.52-.88v-3.03a3.36 3.36 0 0 1 1.52-2.68ZM61.88 280.581l8.38-4.84c.84-.49 1.52-.09 1.52.88v3.08a3.35 3.35 0 0 1-1.52 2.63l-8.38 4.84c-.84.49-1.52.09-1.52-.88v-3.08a3.361 3.361 0 0 1 1.52-2.63ZM61.88 292.831l8.38-4.83c.84-.49 1.52-.1 1.52.87v3.13a3.364 3.364 0 0 1-1.52 2.64l-8.38 4.84c-.84.48-1.52.09-1.52-.88v-3.08a3.393 3.393 0 0 1 1.52-2.69ZM61.88 231.57l8.38-4.84c.84-.49 1.52-.09 1.52.88v3.08a3.35 3.35 0 0 1-1.52 2.63l-8.38 4.84c-.84.49-1.52.09-1.52-.88v-3.08a3.353 3.353 0 0 1 1.52-2.63ZM61.88 243.82l8.38-4.82c.84-.48 1.52-.09 1.52.88v3.08a3.384 3.384 0 0 1-1.52 2.64l-8.38 4.84c-.84.48-1.52.09-1.52-.88v-3.08a3.39 3.39 0 0 1 1.52-2.66ZM61.88 256.08l8.38-4.84c.84-.48 1.52-.09 1.52.88v3.08a3.376 3.376 0 0 1-1.52 2.64l-8.38 4.83c-.84.49-1.52.1-1.52-.87v-3.08a3.388 3.388 0 0 1 1.52-2.64ZM61.88 194.81l8.38-4.81c.84-.48 1.52-.09 1.52.88v3.08a3.38 3.38 0 0 1-1.52 2.64l-8.38 4.84c-.84.48-1.52.09-1.52-.88v-3.08a3.391 3.391 0 0 1 1.52-2.67ZM61.88 207.071l8.38-4.84c.84-.48 1.52-.09 1.52.88v3.08a3.384 3.384 0 0 1-1.52 2.64l-8.38 4.83c-.84.49-1.52.1-1.52-.87v-3.08a3.392 3.392 0 0 1 1.52-2.64ZM61.88 219.331l8.38-4.84c.84-.49 1.52-.09 1.52.88v3.08a3.35 3.35 0 0 1-1.52 2.63l-8.38 4.84c-.84.49-1.52.09-1.52-.88v-3.04a3.36 3.36 0 0 1 1.52-2.67ZM61.88 182.57l8.38-4.83c.84-.49 1.52-.1 1.52.87v3.08a3.351 3.351 0 0 1-1.52 2.64l-8.38 4.84c-.84.48-1.52.09-1.52-.88v-3.08a3.388 3.388 0 0 1 1.52-2.64Z" fill="#E0E0E0"/><path d="M345.848 57.87a1.753 1.753 0 0 0-.07-.4v-.09a1.918 1.918 0 0 0-.1-.38 2.363 2.363 0 0 0-.26-.56.74.74 0 0 0-.14-.22.506.506 0 0 0-.13-.16 1.238 1.238 0 0 0-.28-.28 1.99 1.99 0 0 0-.37-.22 3.161 3.161 0 0 0-2.92.37l-220.58 126.95a9.584 9.584 0 0 0-4.33 7.51v159.4a3.004 3.004 0 0 0 1.56 2.62c.063.031.124.068.18.11l.23.12c.118.058.242.102.37.13.184.043.371.067.56.07.505-.001 1-.143 1.43-.41l.12-.07 4.13-2.39 216.29-124.59a9.571 9.571 0 0 0 4.34-7.51V58.41c.001-.18-.01-.36-.03-.54Z" fill="#FAFAFA"/><path d="M344.459 55.53a3.161 3.161 0 0 0-2.92.37l-220.54 126.98a9.584 9.584 0 0 0-4.33 7.51v14.17l-5.54-3.24v-14.07a9.582 9.582 0 0 1 4.33-7.5l220.54-126.98a3 3 0 0 1 3.14-.25c.79.48 4.39 2.53 5.32 3.01Z" fill="#31B34E"/><path d="M345.868 58.38c0-2.74-1.95-3.85-4.33-2.47l-220.54 126.97a9.6 9.6 0 0 0-4.33 7.51v14.18l229.19-132 .01-14.19Z" fill="#31B34E"/><path opacity=".5" d="m341.538 55.91-220.54 126.97a9.004 9.004 0 0 0-3 3.22l-5.5-3.19a8.496 8.496 0 0 1 3-3.16l220.5-126.98a3.07 3.07 0 0 1 3.15-.26c.78.48 4.38 2.53 5.29 3a3.12 3.12 0 0 0-2.9.4Z" fill="#fff"/><path opacity=".15" d="M111.129 201.34v-14.1a8.892 8.892 0 0 1 1.32-4.33l5.52 3.18a8.69 8.69 0 0 0-1.3 4.3v14.18l-5.54-3.23Z" fill="#000"/><path d="M320.239 74.44c-1.35.78-2.45 3.11-2.45 5.19 0 2.08 1.1 3.14 2.45 2.35s2.45-3.1 2.45-5.18c0-2.08-1.1-3.14-2.45-2.36ZM329.059 69.34c-1.36.79-2.45 3.11-2.45 5.19 0 2.08 1.09 3.14 2.45 2.36 1.36-.78 2.44-3.11 2.44-5.19 0-2.08-1.09-3.14-2.44-2.36ZM337.868 64.24c-1.35.79-2.45 3.11-2.45 5.19 0 2.08 1.1 3.14 2.45 2.36 1.35-.78 2.45-3.11 2.45-5.19 0-2.08-1.1-3.14-2.45-2.36Z" fill="#FAFAFA"/><path d="m118.249 352.41-.24-.13-4.57-2.64a4.543 4.543 0 0 1-2.26-3.36 4.422 4.422 0 0 1-.05-.63V201.32l5.54 3.25v145.21a3.002 3.002 0 0 0 1.39 2.51c.067.035.13.075.19.12Z" fill="#E0E0E0"/><path d="M157.549 238.791v-12.57c0-8.16 5.82-18.12 13-22.25l51.15-29.34c7.19-4.13 13-.92 13 7.16v12.42M137.24 250.521l186.85-107.9M255 182.501v-13.18c0-7.8 5.82-17.47 13-21.61l56.06-32.29M177.859 227.061v14.54c0 8 5.81 11.17 13 7l69.06-39.88c7.18-4.14 13-14 13-22v-14.54M277.299 169.641v14.54c0 8 5.82 11.18 13 7l33.7-19.4" stroke="#455A64" stroke-linecap="round" stroke-linejoin="round"/><path d="M137.239 244.871c2.69-1.55 4.87-.29 4.87 2.82a10.78 10.78 0 0 1-4.87 8.44c-2.69 1.55-4.88.29-4.88-2.82a10.8 10.8 0 0 1 4.88-8.44Z" fill="#31B34E"/><path opacity=".5" d="M324.089 137.001c2.69-1.55 4.88-.29 4.88 2.82a10.8 10.8 0 0 1-4.88 8.44c-2.69 1.55-4.87.29-4.87-2.82a10.792 10.792 0 0 1 4.87-8.44Z" fill="#fff"/><path d="M196.14 183.671c2.69-1.56 4.87-.3 4.87 2.81a10.768 10.768 0 0 1-4.87 8.44c-2.7 1.56-4.88.3-4.88-2.81a10.754 10.754 0 0 1 4.88-8.44ZM157.55 233.151c2.69-1.56 4.87-.3 4.87 2.81a10.771 10.771 0 0 1-4.87 8.44c-2.69 1.56-4.88.3-4.88-2.81a10.765 10.765 0 0 1 4.88-8.44ZM234.73 188.591c2.69-1.56 4.87-.3 4.87 2.81a10.768 10.768 0 0 1-4.87 8.44c-2.7 1.56-4.88.3-4.88-2.81a10.741 10.741 0 0 1 4.88-8.44Z" fill="#31B34E"/><g opacity=".35" fill="#000"><path opacity=".35" d="M196.14 183.671c2.69-1.56 4.87-.3 4.87 2.81a10.768 10.768 0 0 1-4.87 8.44c-2.7 1.56-4.88.3-4.88-2.81a10.754 10.754 0 0 1 4.88-8.44ZM157.55 233.152c2.69-1.56 4.87-.3 4.87 2.81a10.771 10.771 0 0 1-4.87 8.44c-2.69 1.56-4.88.3-4.88-2.81a10.765 10.765 0 0 1 4.88-8.44ZM234.73 188.591c2.69-1.56 4.87-.3 4.87 2.81a10.768 10.768 0 0 1-4.87 8.44c-2.7 1.56-4.88.3-4.88-2.81a10.741 10.741 0 0 1 4.88-8.44Z"/></g><path d="M254.999 176.86c2.69-1.55 4.87-.29 4.87 2.81a10.789 10.789 0 0 1-4.87 8.45c-2.7 1.55-4.88.29-4.88-2.82a10.758 10.758 0 0 1 4.88-8.44ZM275.349 137.931c2.69-1.55 4.87-.29 4.87 2.82a10.767 10.767 0 0 1-4.87 8.44c-2.7 1.56-4.88.3-4.88-2.81a10.771 10.771 0 0 1 4.88-8.45ZM299.72 123.861c2.69-1.55 4.87-.29 4.87 2.82a10.768 10.768 0 0 1-4.87 8.44c-2.69 1.55-4.88.29-4.88-2.81a10.809 10.809 0 0 1 4.88-8.45ZM324.089 109.791c2.69-1.55 4.88-.29 4.88 2.82a10.8 10.8 0 0 1-4.88 8.44c-2.69 1.55-4.87.29-4.87-2.82a10.792 10.792 0 0 1 4.87-8.44Z" fill="#31B34E"/><g opacity=".15" fill="#000"><path opacity=".15" d="M254.999 176.86c2.69-1.55 4.87-.29 4.87 2.81a10.789 10.789 0 0 1-4.87 8.45c-2.7 1.55-4.88.29-4.88-2.82a10.758 10.758 0 0 1 4.88-8.44ZM275.349 137.931c2.69-1.55 4.87-.29 4.87 2.82a10.767 10.767 0 0 1-4.87 8.44c-2.7 1.56-4.88.3-4.88-2.81a10.771 10.771 0 0 1 4.88-8.45ZM299.72 123.861c2.69-1.55 4.87-.29 4.87 2.82a10.768 10.768 0 0 1-4.87 8.44c-2.69 1.55-4.88.29-4.88-2.81a10.809 10.809 0 0 1 4.88-8.45ZM324.089 109.791c2.69-1.55 4.88-.29 4.88 2.82a10.8 10.8 0 0 1-4.88 8.44c-2.69 1.55-4.87.29-4.87-2.82a10.792 10.792 0 0 1 4.87-8.44Z"/></g><path d="M177.859 221.421c2.69-1.56 4.87-.3 4.87 2.81a10.788 10.788 0 0 1-4.87 8.45c-2.69 1.55-4.88.29-4.88-2.82a10.76 10.76 0 0 1 4.88-8.44ZM226.599 222.361c2.69-1.56 4.88-.3 4.88 2.81a10.783 10.783 0 0 1-4.88 8.44c-2.69 1.56-4.87.3-4.87-2.81a10.754 10.754 0 0 1 4.87-8.44ZM275.44 165.171c2.7-1.56 4.88-.3 4.88 2.81a10.771 10.771 0 0 1-4.88 8.45c-2.69 1.55-4.87.29-4.87-2.82.091-1.69.579-3.336 1.425-4.803a10.773 10.773 0 0 1 3.445-3.637ZM324.089 166.151c2.69-1.56 4.88-.3 4.88 2.81a10.81 10.81 0 0 1-4.88 8.45c-2.69 1.55-4.87.29-4.87-2.82.09-1.691.578-3.336 1.425-4.803a10.745 10.745 0 0 1 3.445-3.637ZM299.72 180.221c2.69-1.55 4.87-.29 4.87 2.81a10.785 10.785 0 0 1-4.87 8.45c-2.69 1.55-4.88.29-4.88-2.82a10.765 10.765 0 0 1 4.88-8.44Z" fill="#31B34E"/><g opacity=".5" fill="#fff"><path opacity=".5" d="M177.859 221.421c2.69-1.56 4.87-.3 4.87 2.81a10.788 10.788 0 0 1-4.87 8.45c-2.69 1.55-4.88.29-4.88-2.82a10.76 10.76 0 0 1 4.88-8.44ZM226.599 222.362c2.69-1.56 4.88-.3 4.88 2.81a10.783 10.783 0 0 1-4.88 8.44c-2.69 1.56-4.87.3-4.87-2.81a10.754 10.754 0 0 1 4.87-8.44ZM275.438 165.171c2.7-1.56 4.88-.3 4.88 2.81a10.771 10.771 0 0 1-4.88 8.45c-2.69 1.55-4.87.29-4.87-2.82.091-1.69.579-3.336 1.425-4.803a10.773 10.773 0 0 1 3.445-3.637ZM324.089 166.152c2.69-1.56 4.88-.3 4.88 2.81a10.81 10.81 0 0 1-4.88 8.45c-2.69 1.55-4.87.29-4.87-2.82.09-1.691.578-3.337 1.425-4.803a10.745 10.745 0 0 1 3.445-3.637ZM299.718 180.222c2.69-1.55 4.87-.29 4.87 2.81a10.785 10.785 0 0 1-4.87 8.45c-2.69 1.55-4.88.29-4.88-2.82a10.761 10.761 0 0 1 4.88-8.44Z"/></g><path d="M133.18 319.871v-5.55a2.404 2.404 0 0 1 1.08-1.88l14.08-8.13c.6-.34 1.08-.06 1.08.63v5.55a2.404 2.404 0 0 1-1.08 1.88l-14.08 8.13c-.6.34-1.08.06-1.08-.63Z" fill="#31B34E"/><path d="m154.57 304.081 18.14-10.47c.6-.35 1.09-.1 1.09.54a2.326 2.326 0 0 1-1.09 1.8l-18.14 10.48c-.6.34-1.08.1-1.08-.55a2.317 2.317 0 0 1 1.08-1.8Z" fill="#E0E0E0"/><path d="M186 289.391v-5.56a2.419 2.419 0 0 1 1.09-1.88l14.08-8.13c.6-.34 1.08-.06 1.08.63v5.55a2.386 2.386 0 0 1-1.08 1.88l-14.1 8.12c-.6.36-1.07.08-1.07-.61Z" fill="#31B34E"/><path opacity=".35" d="M186 289.391v-5.56a2.419 2.419 0 0 1 1.09-1.88l14.08-8.13c.6-.34 1.08-.06 1.08.63v5.55a2.386 2.386 0 0 1-1.08 1.88l-14.1 8.12c-.6.36-1.07.08-1.07-.61Z" fill="#000"/><path d="m207.379 273.591 18.14-10.47c.6-.35 1.08-.1 1.08.55a2.297 2.297 0 0 1-1.08 1.79l-18.14 10.48c-.6.34-1.09.1-1.09-.55a2.34 2.34 0 0 1 .33-1.03c.19-.312.45-.576.76-.77Z" fill="#E0E0E0"/><path d="M238.789 258.9v-5.56a2.366 2.366 0 0 1 1.08-1.87l14.13-8.13c.6-.35 1.09-.07 1.09.62v5.56a2.385 2.385 0 0 1-1.09 1.87l-14.08 8.13c-.65.35-1.13.07-1.13-.62Z" fill="#31B34E"/><path opacity=".5" d="M238.789 258.9v-5.56a2.366 2.366 0 0 1 1.08-1.87l14.13-8.13c.6-.35 1.09-.07 1.09.62v5.56a2.385 2.385 0 0 1-1.09 1.87l-14.08 8.13c-.65.35-1.13.07-1.13-.62Z" fill="#fff"/><path d="m260.18 243.111 18.15-10.48c.59-.34 1.08-.1 1.08.55a2.364 2.364 0 0 1-1.08 1.8l-18.15 10.47c-.6.35-1.08.1-1.08-.55a2.296 2.296 0 0 1 1.08-1.79Z" fill="#E0E0E0"/><path d="M291.6 228.411v-5.56a2.365 2.365 0 0 1 1.08-1.87l14.08-8.13c.6-.35 1.08-.07 1.08.62v5.53a2.366 2.366 0 0 1-1.08 1.87l-14.08 8.13c-.6.38-1.08.1-1.08-.59Z" fill="#31B34E"/><path opacity=".5" d="M291.6 228.411v-5.56a2.365 2.365 0 0 1 1.08-1.87l14.08-8.13c.6-.35 1.08-.07 1.08.62v5.53a2.366 2.366 0 0 1-1.08 1.87l-14.08 8.13c-.6.38-1.08.1-1.08-.59Z" fill="#fff"/><path d="m313 212.62 18.14-10.48c.6-.34 1.09-.1 1.09.55a2.332 2.332 0 0 1-1.09 1.8L313 215c-.6.35-1.08.1-1.08-.54a2.314 2.314 0 0 1 1.08-1.84Z" fill="#E0E0E0"/><path d="m407.739 122.001-32.54 18.79a2.575 2.575 0 0 0-1.16 2v39.76a2.519 2.519 0 0 0 1.17 2l4.62 2.63a2.617 2.617 0 0 0 2.33 0l32.53-18.82a2.601 2.601 0 0 0 1.16-2v-39.78a2.534 2.534 0 0 0-1.16-2l-4.62-2.58a2.617 2.617 0 0 0-2.33 0Z" fill="#F28F8F"/><path d="M382.159 187.18a2.672 2.672 0 0 1-2.33 0l-4.62-2.63a2.519 2.519 0 0 1-1.17-2V142.8c.015-.422.142-.833.37-1.19l6.93 4c-.22.36-.35.77-.35.14v39.75c.01 1.68.48 2.07 1.17 1.68Z" fill="#F28F8F"/><path opacity=".5" d="M415.838 126.371c-.09-.58-.57-.79-1.15-.46l-32.53 18.82a2.385 2.385 0 0 0-.82.87l-6.94-4c.192-.338.468-.62.8-.82l32.54-18.78a2.617 2.617 0 0 1 2.33 0l4.61 2.63a2.547 2.547 0 0 1 1.16 1.74Z" fill="#fff"/><path d="M370.859 172.291c-.73-.44-6.29-3.57-6.47-3.68a1.068 1.068 0 0 1-.23-1.65l9.84-11.33 6.95 4-10.33 11a1.097 1.097 0 0 0 .24 1.66Z" fill="#FFA8A7"/><path opacity=".5" d="M370.859 172.291c-.73-.44-6.29-3.57-6.47-3.68a1.068 1.068 0 0 1-.23-1.65l9.84-11.33 6.95 4-10.33 11a1.097 1.097 0 0 0 .24 1.66Z" fill="#fff"/><path d="m414.688 125.91-32.53 18.82a2.566 2.566 0 0 0-1.16 2v12.88l-10.34 11a1 1 0 0 0 .66 1.78l9.67-.71v14.78c0 .74.52 1 1.16.67l32.53-18.82a2.601 2.601 0 0 0 1.16-2v-39.73c.01-.74-.51-1.04-1.15-.67Z" fill="#FFA8A7"/><path d="m408.249 161.211-6.62-5 6.89-13.15a2.5 2.5 0 0 0-1.055-3.375 2.5 2.5 0 0 0-3.375 1.055l-6.5 12.42-5.95-4.5a2.497 2.497 0 0 0-3.5.5 2.484 2.484 0 0 0-.475 1.853 2.492 2.492 0 0 0 .975 1.647l6.62 5-6.6 12.59a2.509 2.509 0 0 0 1.06 3.38c.359.184.756.28 1.16.28a2.48 2.48 0 0 0 2.21-1.34l6.21-11.86 6 4.5c.432.334.963.514 1.51.51a2.507 2.507 0 0 0 1.457-.471 2.498 2.498 0 0 0 .053-4.019l-.07-.02Z" fill="#FAFAFA"/><path d="M382.159 126.601a2.644 2.644 0 0 1-2.33 0l-4.62-2.6c-.65-.36-1.17-1.26-1.17-1v-39.77a3.819 3.819 0 0 1 .37-2.19l6.93 4a3.763 3.763 0 0 0-.35 2.14v39.76c.01-.33.48.06 1.17-.34Z" fill="#263238"/><path d="M415.838 65.8c-.09-.59-.57-.8-1.15-.46l-32.53 18.82a2.388 2.388 0 0 0-.82.87l-6.94-4c.194-.338.469-.623.8-.83l32.54-18.82a2.62 2.62 0 0 1 2.33 0l4.61 2.62a2.553 2.553 0 0 1 1.16 1.8ZM370.859 111.711c-.73-.43-6.29-3.56-6.47-3.67a1.072 1.072 0 0 1-.23-1.65l9.84-11.33 6.95 4-10.33 11a1.07 1.07 0 0 0-.229.411 1.079 1.079 0 0 0 .132.91c.087.133.202.245.337.329Z" fill="#455A64"/><path d="m414.688 65.34-32.53 18.82a2.565 2.565 0 0 0-1.16 2v12.88l-10.34 11.001a.998.998 0 0 0-.312 1.128.997.997 0 0 0 .972.652l9.67-.7v14.77c0 .75.52 1 1.16.67l32.53-18.82a2.57 2.57 0 0 0 1.16-2v-39.74c.01-.73-.51-1-1.15-.66Z" fill="#37474F"/><path d="m407.739.82-32.54 18.82c-.64.37-1.16 1.27-1.16 3v39.78c0-.26.52.63 1.17 1l4.62 2.63a2.62 2.62 0 0 0 2.33 0l32.53-18.82a2.578 2.578 0 0 0 1.16-2V5.44a2.52 2.52 0 0 0-1.16-2l-4.62-2.63a2.62 2.62 0 0 0-2.33.01Z" fill="#31B34E"/><path opacity=".2" d="M382.159 66a2.677 2.677 0 0 1-2.33 0l-4.62-2.63c-.65-.36-1.17-1.26-1.17-1V22.65a3.777 3.777 0 0 1 .37-2.18l6.93 4c-.22.36-.35.77-.35.14v39.75c.01 1.64.48 2.07 1.17 1.64Z" fill="#000"/><path opacity=".5" d="M415.838 5.23c-.09-.59-.57-.8-1.15-.46l-32.53 18.82a2.388 2.388 0 0 0-.82.87l-6.94-4c.194-.338.469-.623.8-.83L407.738.81a2.62 2.62 0 0 1 2.33 0l4.61 2.63a2.551 2.551 0 0 1 1.16 1.79Z" fill="#fff"/><path d="M370.859 51.14c-.73-.43-6.29-3.57-6.47-3.67a1.08 1.08 0 0 1-.23-1.66l9.84-11.32 6.95 4-10.33 11a1.104 1.104 0 0 0-.093 1.32c.086.133.2.245.333.33Z" fill="#31B34E"/><path opacity=".5" d="M370.859 51.14c-.73-.43-6.29-3.57-6.47-3.67a1.08 1.08 0 0 1-.23-1.66l9.84-11.32 6.95 4-10.33 11a1.104 1.104 0 0 0-.093 1.32c.086.133.2.245.333.33Z" fill="#fff"/><path d="m414.69 4.77-32.53 18.82a2.565 2.565 0 0 0-1.16 2v12.89l-10.34 11a.994.994 0 0 0-.312 1.128.997.997 0 0 0 .972.653l9.67-.7v14.8c0 .74.52 1 1.16.67l32.53-18.82a2.578 2.578 0 0 0 1.16-2V5.44c.01-.74-.51-1.04-1.15-.67Z" fill="#31B34E"/><path d="M408.659 15.87a2.91 2.91 0 0 0-3.79 1.55l-10.87 25.99-2.61-2.53a2.891 2.891 0 0 0-4 4.14l5.61 5.49a2.885 2.885 0 0 0 2.601.742 2.883 2.883 0 0 0 2.069-1.742l12.53-29.85a2.896 2.896 0 0 0-1.54-3.79Z" fill="#FAFAFA"/><path d="M310.051 232.431c5.26.81 8.46 3.8 8.62 7.95.16 4.15-6.39 20.05-6.39 20.05 7.23 6.55 12.19 10.89 15.72 13.4 2.79 2 10.38 11.14 10.15 13-.23 1.86-3.28-1.92-5.26-3.85-1.98-1.93-5.79-2.27-10.05-4.32-4.26-2.05-18.41-9.16-20.25-11.71-1.84-2.55 7.46-34.52 7.46-34.52Z" fill="#FFA8A7"/><path d="M309.57 232.33c1.561.065 3.096.428 4.52 1.07a8.385 8.385 0 0 1 4.71 5.6c.38 2.31-.52 6.16-2.14 10.35a93.16 93.16 0 0 1-4.06 8.81l-3-2.43-.03-23.4Z" fill="#37474F"/><path d="M337.001 359c-.83 0-.88.91-1 2.87a14.077 14.077 0 0 0 .1 6.29c1.86 3.3 4.26 3.29 6.57 6.67 1.84 2.71 4.54 6.19 10.11 6.81 6.81.75 9.82-3.21 8.08-4.9-1.92-1.86-6.66-4.32-12.06-11.44-2.7-3.59-11.8-6.3-11.8-6.3Z" fill="#455A64"/><path d="M342.91 349s1.9 7.88 3.72 11.55a60.942 60.942 0 0 0 7.37 10.57c.59.73 1.91 2.12 2.43 2.67 1.15 1.23.16 1.88-1 2-2.77.37-5.4-.54-8.31-2.86-3.35-2.67-4.62-4.71-7.49-7.8a13.362 13.362 0 0 1-2.32-3.19 4.762 4.762 0 0 1-.34-2.42 8.245 8.245 0 0 0-.34-2.58 19.247 19.247 0 0 0-.78-2.54c-.32-.95-1.73-3.19-2.17-4.08l9.23-1.32Z" fill="#FFA8A7"/><path d="M283.54 276.441c-1 5.79-2.08 9.33-.41 15.29 1.67 5.96 4.94 9.81 15.21 14.79 7 3.39 19.59 9.23 21.61 10.08 2.02.85 2.25 2.06 2 5.88s1.21 10 5.59 17.8c4.63 8.18 7.2 12.22 7.2 12.22a14.556 14.556 0 0 0 8.45-2.32s-7.34-36.39-9.13-41.35c-1.79-4.96-20.84-20.77-20.84-20.77s1.87-7.94 3.25-13.72l-32.93 2.1Z" fill="#37474F"/><path d="M356.53 349.601c-.83 0-.83 1-.89 2.92a14.074 14.074 0 0 0 .4 6.27c2 3.21 4.41 3.09 6.87 6.36 2 2.62 4.84 6 10.42 6.32 6.85.43 9.67-3.67 7.85-5.27-2-1.77-6.86-4-12.59-10.87-2.86-3.41-12.06-5.73-12.06-5.73Z" fill="#455A64"/><path d="M361.081 335.061s3.38 12 5.36 15.55a59.634 59.634 0 0 0 7.64 10.33c.62.7 2 2 2.55 2.56 1.21 1.17.25 1.86-.93 2.08-2.75.5-5.42-.29-8.43-2.46-3.48-2.51-4.84-4.49-7.86-7.44a13.373 13.373 0 0 1-2.41-3.08 4.748 4.748 0 0 1-.46-2.4 7.919 7.919 0 0 0-.12-2.61 17.412 17.412 0 0 0-.78-2.54 22.564 22.564 0 0 0-1.25-2.73l6.69-7.26Z" fill="#FFA8A7"/><path d="M303.051 265c-1 5.79-1.35 9.07.69 14.91s6.78 15.14 14.95 19.71c6.77 3.79 17 7.65 19 8.54 1.55.69 2.07 2.37 2.72 6.56.6 3.79 2.43 7.92 6.81 15.67 4.63 8.18 8.22 14.35 8.22 14.35 1.84.34 6.56-.65 7.86-2.31 0 0-9.78-38.17-11.56-43.12-1.78-4.95-14.74-12.31-20.25-15.49-5.51-3.18-8.65-5.19-15-9.48l-13.44-9.34Z" fill="#37474F"/><path d="M317.35 282.881a44.973 44.973 0 0 1-4.1 5.18l1.17 1a16.453 16.453 0 0 0 2.93-6.18Z" fill="#37474F"/><path d="M295.471 232.821a35.409 35.409 0 0 0-6.8 1s4.06 4.81 1.45 13.35c-1.85 6.05-3.33 6.31-6.79 7.46 2.38 10.27-.2 24.24-.2 24.24s6.63 5.35 20.76 4.07c12.41-1.13 12.61-8.62 12.61-8.62l-4.33-4.86.6-9.44s4.6-3.26 4.36-10.72c-.28-8.6-7.24-17-7.24-17a20.22 20.22 0 0 0-4.37-.18l-10.05.7Z" fill="#31B34E"/><path opacity=".5" d="M295.471 232.821a35.409 35.409 0 0 0-6.8 1s4.06 4.81 1.45 13.35c-1.85 6.05-3.33 6.31-6.79 7.46 2.38 10.27-.2 24.24-.2 24.24s6.63 5.35 20.76 4.07c12.41-1.13 12.61-8.62 12.61-8.62l-4.33-4.86.6-9.44s4.6-3.26 4.36-10.72c-.28-8.6-7.24-17-7.24-17a20.22 20.22 0 0 0-4.37-.18l-10.05.7Z" fill="#fff"/><path opacity=".1" d="M313.549 279.551c-6.41 1.11-15.56-.25-18.73-3.52s-5.88-10.64-4.93-15.29c1.16-5.63 2.69-13.24 1.76-18.28l-.55-.19a24.366 24.366 0 0 1-1 4.92c-1.85 6.05-3.33 6.31-6.79 7.46 2.17 10-.2 24.24-.2 24.24s6.63 5.35 20.76 4.07c4-.37 7.4-1.46 9.66-3.41h.02Z" fill="#000"/><path d="M307.33 196a19.37 19.37 0 0 0-2.51-.22 17.693 17.693 0 0 0-9.16 2.52 14.572 14.572 0 0 0-7.39 12.64c.21 7.8 3.85 11.47 7 16.83h6c1.182-.08 2.368-.08 3.55 0a7.125 7.125 0 0 0 4.63-1.18 9.897 9.897 0 0 0 4.23-5 7.177 7.177 0 0 1 1.46-3 9.388 9.388 0 0 1 2.55-1.22 6.048 6.048 0 0 0 3.31-6.48 3.496 3.496 0 0 0 1.455-5.796 3.51 3.51 0 0 0-2.105-1.024 8.648 8.648 0 0 0 1.11-2.73 3.535 3.535 0 0 0-.57-2.82c-.83-1.06-2.29-1.34-3.62-1.52-2.31-.31-4.63-.51-6.95-.68-1.06-.03-2.03-.19-2.99-.32Z" fill="#263238"/><path d="M316.521 207c1.64 1.36 3.24 4.61 1.5 14.09-1.48 8-4.42 9.61-5.82 10-1.4.39-3.88-.39-6.28-1.19l-.58 3.33s3.05 7.56 1.91 11.24c-.66 2.16-5.26-1.09-8.09-3.77a26.297 26.297 0 0 1-4.86-7.29l2-12a2.41 2.41 0 0 1-3-.51c-1.76-1.6-2.05-5.08-.22-6.43 1.83-1.35 4.44-.84 4.67 1.85 0 0 .51-4.1 6.68-5.18 4.57-.85 9.7-.44 12.09-4.14Z" fill="#FFA8A7"/><path d="M301.13 212c-.74.57-1.83 3.95-2.11 5.74a1.645 1.645 0 0 1-.615 1.047c-.33.259-.747.381-1.165.343l.47-2.84s.55-5.12 3.42-4.29ZM308.759 218.12a1.12 1.12 0 1 1-1-1.29 1.157 1.157 0 0 1 .97.841c.04.146.05.299.03.449Z" fill="#263238"/><path d="m307.79 224.29 3 1.53a1.68 1.68 0 0 1-2.27.82 1.779 1.779 0 0 1-.73-2.35Z" fill="#F28F8F"/><path d="m318.131 214.001-2.58-.72a1.337 1.337 0 0 1 1.638-.889c.335.094.621.314.797.614.175.3.227.657.145.995ZM308.261 213.65l-2.57.78a1.34 1.34 0 0 1 .895-1.675 1.345 1.345 0 0 1 1.675.895ZM316.94 218.12a1.123 1.123 0 1 1-2.233-.25 1.123 1.123 0 0 1 2.233.25Z" fill="#263238"/><path d="m312.031 223.861 3.29-.89-2.79-5.42-.5 6.31ZM305.921 229.83c-2.53-.76-7.62-3.15-8.12-5.39a5.56 5.56 0 0 0 1.44 3c1.38 1.62 6.43 4 6.43 4l.25-1.61Z" fill="#F28F8F"/><path d="M294.801 297.2v.72a2.066 2.066 0 0 0 1 1.78l19.51 11.22a2.058 2.058 0 0 0 2 0l35.79-20.66a2 2 0 0 0 1-1.77V288l-37.83 21.84-21.47-12.64Z" fill="#EBEBEB"/><path d="M354.18 288 333 275.74a1.211 1.211 0 0 0-1.22 0L294.93 297a.271.271 0 0 0 0 .47l21.42 12.36L354.18 288Z" fill="#FAFAFA"/><path d="M322.84 278.631c1.74.67 1.67 1.18 3.1 2a7.135 7.135 0 0 0 4.34 1.2 25.299 25.299 0 0 0 2.5 2.06c1.86 1.28 3.73 2.26 6 1.54 2.52-.8.74-3.29 0-4.52-.74-1.23-4.79-4.82-5.59-5.55-.8-.73-4.23-1.24-7.25-2.18l-3.1 5.45Z" fill="#FFA8A7"/><path d="m316.161 308.03-11.45-6.6 33.47-19.32 11.5 6.57-33.52 19.35ZM310.531 289.67l.21.12 5.61 3.24 9.98-5.76.21-.12-5.83-3.36-10.18 5.88Z" fill="#E0E0E0"/><path d="m310.74 289.79 5.61 3.24 9.98-5.76-5.62-3.24-9.97 5.76Z" fill="#E6E6E6"/><path d="M316.35 309.83v1.36a2.008 2.008 0 0 0 1-.27l35.79-20.66a2.007 2.007 0 0 0 1-1.77V288l-37.79 21.83Z" fill="#EBEBEB"/><path d="M316.35 309.83v1.36a2.008 2.008 0 0 0 1-.27l35.79-20.66a2.007 2.007 0 0 0 1-1.77V288l-37.79 21.83Z" fill="#E0E0E0" style="mix-blend-mode:multiply" opacity=".5"/><path d="M316.93 310.14A2.4 2.4 0 0 0 319 310l35.63-20.57a2.46 2.46 0 0 0 1.18-1.69l3.9-23.26a2.67 2.67 0 0 0 0-.4c0-.32-.063-.637-.186-.932a2.422 2.422 0 0 0-.534-.788l-37 21.38a1.775 1.775 0 0 0-.88 1.25l-4.18 25.15Z" fill="#EBEBEB"/><path d="m316.35 309.83.25.14c.105.065.216.122.33.17l4.21-25.14a1.775 1.775 0 0 1 .88-1.25l37-21.38a2.34 2.34 0 0 0-.49-.38l-37.1 21.42a1.765 1.765 0 0 0-.87 1.25l-4.21 25.17Z" fill="#FAFAFA"/><path d="M337.001 288.661a7.84 7.84 0 0 1 3.59-4.62c1.72-1 2.9-.54 2.64 1a7.85 7.85 0 0 1-3.59 4.62c-1.72 1.02-2.91.56-2.64-1Z" fill="#31B34E"/><path d="M296.68 288.641c-4.23-2.14-19.38-8-23.94-10.49-3.17-1.73-4.85-2.85-4.39-5.79.43-2.74 7.66-25.89 10.15-31.1 2.19-4.57 5.55-6.09 10.56-7.24 3.46 4 1 16-2.43 20.39-2.5 5.39-6.93 15.25-6.93 15.25s7.85 5.33 14.11 9.17a56.383 56.383 0 0 0 9.68 4.77c2 .72 5.64 2.55 6.29 3.42a63.034 63.034 0 0 1 3.87 7.22c.5 1.35 1.78 4.12-.84 4.44-2.39.29-4.05-1-5.64-2.63a23.921 23.921 0 0 1-2.07-2.48 9.16 9.16 0 0 1-5.1-2.05c-1.25-1.06-3.32-2.88-3.32-2.88Z" fill="#FFA8A7"/><path d="M289.531 233.631s-5.51.52-8.67 3.73-3.29 5.13-4.84 9.22c-1.55 4.09-4.74 14.1-4.74 14.1a11.797 11.797 0 0 0 11.85 4.51l4.19-10.08a24.104 24.104 0 0 0 4.06-10c.97-5.99.55-9.44-1.85-11.48Z" fill="#37474F"/></svg>